<?xml version="1.0" encoding="UTF-8"?>
<!DOCTYPE svg PUBLIC "-//W3C//DTD SVG 1.1//EN" "http://www.w3.org/Graphics/SVG/1.1/DTD/svg11.dtd">
<!-- Creator: CorelDRAW -->
<svg xmlns="http://www.w3.org/2000/svg" xml:space="preserve" width="100%" height="100%" version="1.1" style="shape-rendering:geometricPrecision; text-rendering:geometricPrecision; image-rendering:optimizeQuality; fill-rule:evenodd; clip-rule:evenodd"
viewBox="0 0 10948.83 2714.06"
 xmlns:xlink="http://www.w3.org/1999/xlink"
 xmlns:xodm="http://www.corel.com/coreldraw/odm/2003">
 <defs>
  <style type="text/css">
   <![CDATA[
    .fil0 {fill:#373435;fill-rule:nonzero}
   ]]>
  </style>
 </defs>
 <g id="Layer_x0020_1">
  <metadata id="CorelCorpID_0Corel-Layer"/>
  <g id="_2135862538736">
   <path class="fil0" d="M1498.87 1060.81c5.69,26.57 3.8,52.2 -5.69,76.88 -9.48,20.88 -26.54,44.13 -51.17,69.76 -24.64,25.63 -64.44,48.88 -119.41,69.76l0 572.33 14.21 11.39c15.17,13.29 32.22,20.41 51.18,21.36 18.95,0.95 36.01,-5.22 51.17,-18.51l22.74 -19.93c0,9.49 -10.42,24.68 -31.27,45.56 -20.85,20.88 -44.54,44.61 -71.08,71.19 -26.53,26.58 -52.12,54.58 -76.76,84 -24.64,29.43 -40.75,58.37 -48.33,86.85l-170.58 -159.46c-13.26,-9.49 -26.53,-18.03 -39.8,-25.63 -30.33,-13.29 -60.66,-11.39 -90.98,5.69 11.37,-13.29 23.69,-23.73 36.96,-31.32 11.37,-7.59 25.11,-14.24 41.22,-19.93 16.11,-5.7 33.64,-6.65 52.59,-2.85l0 -560.95 -275.77 -102.51 0 822.91c28.43,7.59 52.12,17.08 71.07,28.47 18.95,11.39 34.11,22.78 45.49,34.17 13.26,13.29 22.74,28.48 28.43,45.56 -37.91,-22.78 -78.19,-28 -120.83,-15.66 -42.64,12.34 -82.44,38.44 -119.4,78.31 -36.96,39.86 -67.29,92.54 -90.98,158.03 -23.69,65.49 -35.54,140.95 -35.54,226.37 3.79,-1.9 9.47,-2.85 17.06,-2.85 15.16,0 27.95,5.7 38.38,17.09 10.42,11.39 14.68,25.63 12.79,42.71 -3.8,26.57 -18.95,41.76 -45.49,45.56 -15.17,1.9 -28.91,-2.37 -41.22,-12.81 -12.32,-10.44 -18.48,-23.25 -18.48,-38.44l0 -2.85 0 -1289.89c-3.79,-43.66 -28.43,-73.08 -73.92,-88.27l-42.64 -14.24 42.64 -11.39c45.49,-15.19 70.13,-44.61 73.92,-88.27l0 -34.17 0 -2.85 0 -2.85 0 -2.85c-64.44,-39.87 -126.04,-65.02 -184.8,-75.46 -58.76,-10.44 -110.88,-9.02 -156.37,4.27 -45.49,13.29 -81.5,37.49 -108.04,72.61 -26.53,35.12 -39.8,79.26 -39.8,132.41 0,60.75 9.48,108.2 28.43,142.37 18.96,34.17 40.75,60.74 65.39,79.73 26.53,20.88 57.81,35.12 93.82,42.71 -32.22,0 -61.6,-8.07 -88.13,-24.2 -26.54,-16.13 -50.23,-36.54 -71.08,-61.22 -20.85,-24.68 -36.96,-52.2 -48.33,-82.57 -11.37,-30.37 -17.06,-60.74 -17.06,-91.12 0,-64.54 13.27,-129.08 39.8,-193.63 26.53,-64.54 72.02,-116.74 136.46,-156.61 -15.16,0 -25.59,-0.95 -31.27,-2.85 -24.64,-3.8 -46.44,-12.34 -65.39,-25.63 -9.48,-7.59 -18.96,-15.66 -28.43,-24.2 -9.48,-8.54 -17.06,-18.51 -22.74,-29.9 -3.79,-3.8 -5.69,-5.7 -5.69,-5.7l-2.85 -8.54 -8.53 -17.09c-1.9,-7.59 -3.79,-14.24 -5.69,-19.93 -1.9,-5.69 -3.79,-11.39 -5.69,-17.08 0,-7.59 -0.95,-14.24 -2.85,-19.93l0 -8.54 0 -5.69 -2.84 -2.85 0 -11.39 0 -8.54 0 -5.7 0 -2.85 0 -11.39c0,-13.29 0.94,-25.63 2.84,-37.02 1.89,-11.39 4.74,-23.73 8.53,-37.02 3.79,-13.29 7.58,-25.63 11.37,-37.02 3.79,-11.39 7.58,-22.78 11.37,-34.17l34.11 -68.34c13.27,-20.88 26.53,-41.29 39.8,-61.22 13.27,-19.93 27.48,-39.39 42.65,-58.37 15.16,-18.98 29.85,-37.02 44.07,-54.1 14.22,-17.09 28.91,-33.22 44.07,-48.41 15.16,-15.19 29.85,-29.9 44.06,-44.14 14.22,-14.24 28.91,-27.05 44.07,-38.44 53.07,-49.35 99.51,-88.27 139.31,-116.74 18.95,-15.19 32.22,-25.63 39.8,-31.32 3.79,-1.9 7.58,-4.74 11.37,-8.54l2.84 -2.85 11.37 17.09 213.23 199.32c34.11,-28.47 61.13,-55.52 81.02,-81.15 19.9,-25.63 35.07,-48.41 45.49,-68.34 10.42,-19.93 17.53,-36.07 21.33,-48.41 3.79,-12.34 5.68,-18.51 5.68,-18.51 11.37,17.09 27.48,30.37 48.33,39.87l378.12 145.22c32.22,7.59 61.6,8.54 88.13,2.85 20.85,-3.8 40.75,-13.29 59.7,-28.48 18.95,-15.19 28.43,-39.86 28.43,-74.03 5.69,26.57 3.8,52.2 -5.69,76.88 -9.48,20.88 -26.54,44.13 -51.17,69.76 -24.64,25.63 -64.44,48.88 -119.41,69.76l0 549.56 0 45.56c0,37.97 14.21,68.34 42.65,91.12 -41.7,-1.9 -82.45,5.7 -122.25,22.78 -39.8,17.09 -77.71,38.92 -113.72,65.49l193.33 74.04c32.22,7.59 61.6,8.54 88.13,2.85 20.85,-3.8 40.75,-13.29 59.7,-28.48 18.95,-15.19 28.43,-39.86 28.43,-74.03zm-969.47 -600.81c0,-39.87 -15.17,-73.08 -45.49,-99.66l-122.25 -105.35c-13.27,-11.39 -27.48,-16.61 -42.65,-15.66 -15.16,0.95 -28.43,6.17 -39.8,15.66l-19.9 19.93c-15.16,15.19 -30.33,30.85 -45.49,46.98 -15.16,16.14 -30.33,32.75 -45.49,49.83 -26.54,32.27 -54.02,70.24 -82.45,113.9 -5.69,11.39 -11.37,22.31 -17.06,32.75 -5.69,10.44 -11.37,21.35 -17.06,32.74 -3.79,9.49 -7.59,19.93 -11.37,31.32 -3.79,11.39 -7.58,23.73 -11.37,37.02 -3.8,11.39 -6.63,22.78 -8.53,34.17 -1.9,11.39 -3.79,23.73 -5.69,37.02l0 8.54 0 2.85 0 5.7 0 8.54 0 8.54 0 5.7 2.84 2.85 0 11.39c0,7.59 0.94,13.29 2.84,17.09l8.53 34.17c3.79,7.59 5.68,12.34 5.68,14.24l5.69 8.54c0,1.9 0.47,3.32 1.42,4.27 0.94,0.95 1.42,2.37 1.42,4.27 11.37,18.98 26.53,35.12 45.49,48.41 18.96,15.19 38.85,23.73 59.7,25.63 9.47,3.8 17.53,5.69 24.17,5.69 6.63,0 13.74,0 21.32,0 18.95,-9.49 38.86,-18.51 59.7,-27.05 20.84,-8.54 43.59,-14.71 68.23,-18.51 28.43,-22.78 50.23,-47.46 65.39,-74.03 3.79,-7.59 6.63,-14.24 8.53,-19.93 1.89,-5.69 4.74,-12.34 8.53,-19.93 5.69,-11.39 8.53,-22.78 8.53,-34.17 3.79,-9.49 5.69,-18.51 5.69,-27.05 0,-8.54 0.94,-15.66 2.84,-21.35l0 -14.24 0 -5.7 0 5.7 0 14.24c0,5.7 -0.47,12.81 -1.42,21.35 -0.94,8.54 -2.37,17.56 -4.26,27.05 -3.79,15.19 -6.63,27.53 -8.53,37.02 -3.79,5.69 -6.63,11.86 -8.53,18.51 -1.9,6.64 -4.74,12.81 -8.53,18.51 -7.58,13.29 -15.64,26.1 -24.17,38.44 -8.53,12.34 -19.43,23.25 -32.69,32.74 28.43,-3.8 58.76,-6.17 90.98,-7.12 32.22,-0.95 67.28,1.43 105.19,7.12l0 -398.64zm534.48 -85.43l-275.77 -108.2 0 686.23 275.77 108.2 0 -686.24z"/>
   <path class="fil0" d="M4521 1262.98l-36.96 14.24c-39.8,13.29 -61.59,39.87 -65.39,79.73l0 452.74c-49.28,34.17 -92.87,63.59 -130.78,88.27 -32.22,20.88 -61.59,40.81 -88.13,59.8 -26.53,18.98 -39.8,27.52 -39.8,25.63 -45.48,37.97 -82.44,73.56 -110.87,106.78 -28.43,33.22 -42.65,50.78 -42.65,52.68 -70.13,-30.37 -133.62,-57.9 -190.48,-82.57l-193.33 -85.43c-62.54,-34.17 -123.19,-56.47 -181.95,-66.91 -58.76,-10.44 -110.4,-9.49 -154.94,2.85 -44.54,12.34 -80.55,35.12 -108.03,68.34 -27.49,33.22 -41.22,76.41 -41.22,129.56 0,60.75 9.47,108.2 28.43,142.37 18.95,34.17 40.75,60.74 65.39,79.73 26.53,20.88 57.81,35.12 93.82,42.71 -32.22,0 -62.07,-8.07 -89.56,-24.2 -27.48,-16.13 -51.65,-36.54 -72.5,-61.22 -20.85,-24.68 -36.96,-52.68 -48.33,-84 -11.37,-31.32 -17.06,-61.22 -17.06,-89.69 0,-53.15 11.85,-108.68 35.54,-166.57 23.69,-57.9 57.8,-109.15 102.35,-153.76 44.54,-44.61 99.5,-76.41 164.89,-95.39 65.39,-18.98 139.78,-17.08 223.18,5.7l258.72 93.96 275.78 108.2 0 -475.52c-43.6,37.96 -79.61,73.56 -108.04,106.78 -28.43,33.22 -42.65,50.78 -42.65,52.68 -72.02,-32.27 -135.52,-60.75 -190.48,-85.43 -49.29,-20.88 -93.35,-39.86 -132.2,-56.95 -38.85,-17.08 -58.28,-26.57 -58.28,-28.47 -26.54,-7.59 -51.18,-12.34 -73.92,-14.24 -20.85,-1.9 -41.7,-0.47 -62.54,4.27 -20.85,4.75 -38.86,15.66 -54.02,32.75 11.37,-20.88 26.53,-39.87 45.49,-56.95 15.16,-15.19 34.59,-28.95 58.28,-41.29 23.69,-12.34 52.59,-18.51 86.71,-18.51l0 -953.89c-79.61,-24.68 -135.52,-57.9 -167.74,-99.66 -32.22,-41.76 -52.12,-82.57 -59.7,-122.44 -7.59,-47.46 -2.85,-96.81 14.21,-148.07 -9.48,36.07 -11.37,70.24 -5.69,102.51 5.69,32.27 17.54,61.22 35.54,86.85 18.01,25.63 42.65,46.03 73.92,61.22 31.27,15.19 68.7,22.78 112.3,22.78 34.11,0 66.33,-12.81 96.66,-38.44 30.32,-25.63 59.7,-53.63 88.13,-84 28.43,-30.37 56.86,-57.43 85.29,-81.15 28.43,-23.73 59.7,-32.74 93.82,-27.05 -26.54,13.29 -46.91,29.9 -61.13,49.83 -14.21,19.93 -25.12,39.39 -32.69,58.37 -7.58,22.78 -12.32,46.51 -14.21,71.19l0 1022.23 272.93 108.2 0 -1047.86c-15.17,-3.8 -28.43,-9.49 -39.8,-17.08 -11.37,-5.7 -22.27,-12.34 -32.69,-19.93 -10.43,-7.59 -19.43,-18.03 -27.01,-31.32l150.68 -227.8c47.38,51.26 89.08,87.8 125.09,109.63 36.01,21.83 65.39,34.65 88.14,38.44 26.54,5.7 49.28,2.85 68.23,-8.54 -5.69,11.39 -12.32,20.88 -19.91,28.47 -7.57,7.59 -15.63,15.66 -24.16,24.2 -8.53,8.54 -18.48,15.66 -29.85,21.35l2.85 945.35c3.79,39.87 25.59,66.44 65.39,79.73l36.96 14.24zm-1637.58 612.2c15.16,13.29 32.69,19.93 52.59,19.93 19.9,0 37.44,-5.69 52.59,-17.08l22.74 -19.93c0,9.49 -10.42,24.68 -31.27,45.56 -20.85,20.88 -44.54,44.61 -71.08,71.19 -26.54,26.58 -52.12,54.58 -76.76,84 -24.64,29.43 -40.75,58.37 -48.33,86.85l-170.58 -162.31c-13.26,-9.49 -26.53,-18.03 -39.8,-25.63 -13.27,-3.8 -27.48,-6.17 -42.65,-7.12 -15.17,-0.95 -31.28,3.32 -48.33,12.81 11.37,-13.29 23.69,-23.73 36.96,-31.32 11.37,-7.59 25.11,-13.76 41.22,-18.51 16.11,-4.75 33.64,-5.22 52.59,-1.43l0 -523.93c-45.48,41.76 -81.97,80.68 -109.45,116.74 -27.48,36.07 -42.17,55.05 -44.07,56.95l-122.25 -62.64 0 558.1c28.43,7.59 52.12,17.08 71.07,28.47 18.95,11.39 34.12,22.78 45.49,34.17 13.26,13.29 22.74,28.48 28.43,45.56 -37.91,-22.78 -78.19,-28 -120.83,-15.66 -42.64,12.34 -82.45,38.44 -119.41,78.31 -36.96,39.86 -67.29,92.54 -90.98,158.03 -23.7,65.49 -35.54,140.95 -35.54,226.37 3.79,-1.9 9.48,-2.85 17.06,-2.85 15.16,0 27.96,6.17 38.38,18.51 10.42,12.34 14.68,26.1 12.79,41.29 -3.79,26.57 -18.95,41.76 -45.49,45.56 -15.17,1.9 -28.91,-2.37 -41.22,-12.81 -12.32,-10.44 -18.48,-23.25 -18.48,-38.44l0 -2.85 0 -1261.42 0 -2.85 0 -5.7c-64.44,-39.86 -126.04,-65.02 -184.8,-75.46 -58.76,-10.44 -110.88,-9.02 -156.37,4.27 -45.49,13.29 -81.5,37.49 -108.04,72.61 -26.53,35.12 -39.8,79.25 -39.8,132.41 0,60.74 9.48,108.2 28.43,142.37 18.96,34.17 40.75,60.75 65.39,79.73 26.54,20.88 57.81,35.12 93.82,42.71 -32.22,0 -61.6,-8.07 -88.13,-24.2 -26.54,-16.14 -50.23,-36.54 -71.08,-61.22 -20.85,-24.68 -36.96,-52.2 -48.33,-82.58 -11.37,-30.37 -17.06,-60.74 -17.06,-91.12 0,-53.15 9,-106.78 27,-160.88 18.01,-54.1 47.39,-101.09 88.14,-140.95 40.75,-39.87 94.77,-70.24 162.05,-91.12 67.28,-20.88 150.2,-25.63 248.76,-14.24l0 -523.93 0 -139.52c0,-39.87 -15.16,-73.08 -45.49,-99.66l-122.25 -105.35c-13.27,-11.39 -27.48,-16.61 -42.65,-15.66 -15.16,0.95 -28.43,6.17 -39.8,15.66 -3.79,3.8 -7.11,7.12 -9.95,9.96 -2.84,2.85 -6.16,6.17 -9.95,9.97 -15.16,15.19 -30.33,30.85 -45.49,46.98 -15.16,16.14 -30.33,32.75 -45.49,49.83 -15.16,18.98 -29.38,37.49 -42.65,55.53 -13.27,18.03 -26.53,37.49 -39.8,58.37 -5.69,11.39 -11.37,22.31 -17.06,32.75 -5.69,10.44 -11.37,21.35 -17.06,32.74 -3.79,11.39 -7.58,22.78 -11.37,34.17 -3.79,11.39 -7.58,22.78 -11.37,34.17 -3.79,11.39 -6.63,22.78 -8.53,34.17 -1.89,11.39 -3.79,23.73 -5.68,37.02l0 8.54 0 2.85 0 5.7 0 8.54 0 8.54 0 5.7 2.84 5.69 0 8.54c0,7.59 0.95,13.29 2.84,17.09l8.53 34.17c3.79,7.59 5.69,12.34 5.69,14.24l5.69 8.54c0,1.9 0.48,3.32 1.42,4.27 0.94,0.95 1.42,2.37 1.42,4.27 11.37,18.98 26.54,35.12 45.49,48.41 17.06,13.29 36.96,22.78 59.7,28.47 11.37,1.9 22.27,2.85 32.7,2.85 10.43,0 21.32,0 32.69,0 37.91,-5.69 73.92,-20.88 108.04,-45.56 15.16,-9.49 27.96,-20.88 38.38,-34.17 10.42,-13.29 19.43,-26.57 27.01,-39.86 3.79,-7.59 6.63,-14.24 8.53,-19.93 1.9,-5.69 4.74,-12.34 8.53,-19.93 5.69,-11.39 8.53,-22.78 8.53,-34.17 3.79,-9.49 5.69,-18.51 5.69,-27.05 0,-8.54 0.94,-15.66 2.84,-21.35l0 -14.24 0 -2.85 0 2.85 0 14.24c0,5.7 -0.47,12.81 -1.42,21.35 -0.95,8.54 -2.37,17.56 -4.27,27.05 -3.79,15.19 -6.63,27.53 -8.53,37.02 -3.79,5.69 -6.63,11.86 -8.53,18.51 -1.9,6.64 -4.74,12.81 -8.53,18.51 -7.58,15.19 -16.58,29.42 -27.01,42.71 -10.43,13.29 -23.22,25.63 -38.38,37.02 -15.16,11.39 -32.22,21.35 -51.18,29.9 -18.95,8.54 -38.85,14.71 -59.7,18.51 -22.74,3.8 -44.54,2.85 -65.39,-2.85 -24.64,-3.8 -46.44,-12.34 -65.39,-25.63 -9.48,-7.59 -18.96,-15.66 -28.43,-24.2 -9.48,-8.54 -17.06,-18.51 -22.74,-29.9 0,0 -1.9,-1.9 -5.69,-5.7l-2.85 -8.54 -8.52 -17.09c-1.9,-5.69 -3.8,-11.86 -5.69,-18.51 -1.9,-6.65 -3.79,-12.81 -5.69,-18.51 0,-7.59 -0.95,-14.24 -2.85,-19.93l0 -8.54 0 -2.85 -2.84 -5.69 0 -11.39 0 -8.54 0 -2.85 0 -2.85 0 -2.85 0 -8.54c0,-13.29 0.95,-26.1 2.84,-38.44 1.9,-12.34 4.74,-25.15 8.53,-38.44 3.79,-13.29 7.58,-25.63 11.37,-37.02 3.79,-11.39 7.59,-22.78 11.37,-34.17l34.11 -68.34c13.27,-20.88 26.54,-41.29 39.81,-61.22 13.27,-19.93 27.48,-39.39 42.64,-58.37 15.16,-18.98 29.85,-37.02 44.07,-54.1 14.22,-17.09 28.91,-33.22 44.07,-48.41 15.16,-15.19 29.85,-29.43 44.07,-42.71 14.22,-13.29 28.91,-26.57 44.07,-39.87 53.07,-49.35 99.51,-88.27 139.31,-116.74 18.95,-15.19 32.22,-25.63 39.81,-31.32 3.79,-1.9 7.57,-4.74 11.37,-8.54 1.89,0 2.84,-0.95 2.84,-2.85l11.37 17.09 213.23 199.32c34.12,-28.47 61.13,-55.52 81.02,-81.15 19.9,-25.63 35.07,-48.41 45.49,-68.34 10.43,-19.93 17.53,-36.07 21.33,-48.41 3.79,-12.34 5.69,-18.51 5.69,-18.51 11.37,17.09 27.48,30.37 48.33,39.87l378.11 145.22c32.22,7.59 61.6,8.54 88.13,2.85 20.85,-3.8 40.75,-13.29 59.7,-28.48 18.96,-15.19 28.43,-39.86 28.43,-74.03 5.68,26.57 3.79,52.2 -5.69,76.88 -9.48,22.78 -26.53,46.98 -51.17,72.61 -24.64,25.63 -64.44,48.88 -119.41,69.76l0 840c0,20.88 6.16,39.87 18.48,56.95 12.32,17.09 28.91,29.43 49.75,37.02l36.96 14.24 -36.96 14.24c-45.49,15.19 -68.23,46.51 -68.23,93.96l0 492.61 11.37 11.39zm-270.09 -549.56l0 -951.05 -275.77 -108.2 0 951.05 275.77 108.2z"/>
   <path class="fil0" d="M6434.35 1875.19c15.17,13.29 32.7,19.93 52.59,19.93 19.9,0 37.44,-6.64 52.59,-19.93l22.74 -17.09c0,9.49 -10.42,24.68 -31.27,45.56 -20.85,20.88 -44.54,44.14 -71.08,69.76 -26.53,25.63 -52.12,53.15 -76.76,82.57 -24.65,29.43 -40.75,58.37 -48.33,86.85l-170.58 -159.46c-13.27,-9.49 -26.54,-18.03 -39.8,-25.63 -30.32,-13.29 -60.65,-11.39 -90.98,5.69 11.37,-13.29 23.69,-23.73 36.96,-31.32 11.37,-7.59 25.11,-14.24 41.22,-19.93 16.11,-5.7 33.65,-6.65 52.6,-2.85l0 -1537.62 -275.78 -105.35 0 62.64 0 837.15c3.8,41.76 25.59,69.29 65.39,82.57l39.8 14.24 -39.8 14.24c-18.95,5.69 -33.65,16.13 -44.07,31.32 -10.42,15.19 -17.53,32.27 -21.32,51.25l0 504 11.37 11.39c15.17,13.29 32.69,19.93 52.59,19.93 19.9,0 37.44,-6.64 52.59,-19.93l22.74 -17.09c0,9.49 -10.42,24.68 -31.27,45.56 -20.85,20.88 -44.54,44.14 -71.08,69.76 -26.53,25.63 -52.12,53.15 -76.76,82.57 -24.64,29.43 -40.74,58.37 -48.33,86.85l-170.58 -159.46c-13.27,-9.49 -26.54,-18.03 -39.8,-25.63 -30.33,-13.29 -60.65,-11.39 -90.98,5.69 11.37,-13.29 23.69,-23.73 36.96,-31.32 11.37,-7.59 25.11,-14.24 41.22,-19.93 16.11,-5.7 33.64,-6.65 52.59,-2.85l0 -563.8c-9.48,-34.17 -30.33,-56.95 -62.54,-68.34l-36.96 -14.24 36.96 -14.24c32.22,-11.39 53.07,-34.17 62.54,-68.34l0 -808.67 -275.77 -105.35 0 1791.04c28.43,7.59 52.12,17.08 71.07,28.47 18.95,11.39 34.12,22.78 45.49,34.17 13.26,13.29 22.74,28.48 28.43,45.56 -37.91,-22.78 -78.19,-28 -120.83,-15.66 -42.64,12.34 -82.45,38.44 -119.41,78.31 -36.96,39.86 -67.29,92.54 -90.98,158.03 -23.69,65.49 -35.54,140.95 -35.54,226.37 3.79,-1.9 9.48,-2.85 17.06,-2.85 15.16,0 27.96,6.17 38.38,18.51 10.42,12.34 14.69,26.1 12.79,41.29 -3.79,26.57 -18.95,41.76 -45.49,45.56 -15.17,1.9 -28.91,-2.37 -41.22,-12.81 -12.32,-10.44 -18.48,-23.25 -18.48,-38.44l0 -2.85 0 -1315.52c-9.48,-34.17 -30.33,-56.95 -62.55,-68.34l-36.96 -14.24 36.96 -14.24c32.22,-11.39 53.07,-34.17 62.55,-68.34l0 -580.88 0 -139.52c0,-39.87 -15.17,-73.08 -45.49,-99.66l-122.25 -105.35c-13.27,-11.39 -27.48,-16.61 -42.65,-15.66 -15.16,0.95 -28.43,6.17 -39.8,15.66l-19.9 19.93c-15.16,15.19 -30.33,30.85 -45.49,46.98 -15.16,16.14 -30.33,32.75 -45.49,49.83 -26.53,32.27 -54.02,70.24 -82.44,113.9 -5.69,9.49 -11.37,19.93 -17.06,31.32 -5.68,11.39 -11.37,22.78 -17.06,34.17 -3.79,9.49 -7.58,19.93 -11.37,31.32 -3.8,11.39 -7.59,23.73 -11.37,37.02 -3.79,11.39 -6.63,22.78 -8.53,34.17 -1.89,11.39 -3.79,23.73 -5.68,37.02l0 8.54 0 2.85 0 5.7 0 8.54 0 8.54 0 5.7 2.84 2.85 0 11.39c0,7.59 0.94,13.29 2.84,17.09l8.53 34.17c3.79,7.59 5.69,12.34 5.69,14.24l5.69 8.54c0,1.9 0.47,3.32 1.42,4.27 0.94,0.95 1.42,2.37 1.42,4.27 11.37,18.98 26.54,35.12 45.49,48.41 18.95,15.19 38.85,23.73 59.7,25.63 18.96,5.69 40.75,6.64 65.39,2.85 20.85,-1.9 40.28,-6.64 58.28,-14.24 18,-7.59 34.59,-17.09 49.75,-28.48 28.43,-22.78 50.23,-47.46 65.39,-74.03 3.79,-7.59 6.63,-14.24 8.53,-19.93 1.9,-5.69 4.74,-12.34 8.53,-19.93 5.69,-11.39 8.53,-22.78 8.53,-34.17 3.79,-9.49 5.68,-18.51 5.68,-27.05 0,-8.54 0.95,-15.66 2.84,-21.35l0 -14.24 0 -5.7 0 5.7 0 14.24c0,5.7 -0.47,12.81 -1.42,21.35 -0.95,8.54 -2.37,17.56 -4.27,27.05 -3.79,15.19 -6.63,27.53 -8.53,37.02 -3.79,5.69 -6.63,11.86 -8.53,18.51 -1.89,6.64 -4.74,12.81 -8.52,18.51 -7.59,15.19 -16.59,29.42 -27.01,42.71 -10.43,13.29 -23.22,25.63 -38.38,37.02 -28.43,22.78 -65.39,38.91 -110.88,48.41 -22.74,3.8 -44.54,2.85 -65.39,-2.85 -24.64,-3.8 -46.43,-12.34 -65.39,-25.63 -9.48,-7.59 -18.96,-15.66 -28.43,-24.2 -9.48,-8.54 -17.06,-18.51 -22.74,-29.9 -1.9,-1.9 -2.84,-3.32 -2.84,-4.27 0,-0.95 -0.94,-2.37 -2.84,-4.27l-2.85 -5.69 -8.52 -17.09c-1.9,-7.59 -3.79,-14.24 -5.69,-19.93 -1.9,-5.69 -3.79,-11.39 -5.69,-17.08 0,-9.49 -0.95,-16.14 -2.85,-19.93l0 -8.54 0 -5.69 -2.84 -2.85 0 -11.39 0 -8.54 0 -5.7 0 -2.85 0 -11.39c0,-13.29 0.95,-25.63 2.84,-37.02 1.9,-11.39 4.74,-23.73 8.53,-37.02 3.79,-13.29 7.58,-25.63 11.37,-37.02 3.79,-11.39 7.59,-22.78 11.37,-34.17 5.69,-13.29 11.37,-25.15 17.06,-35.59 5.69,-10.44 11.37,-21.36 17.06,-32.75 13.27,-20.88 26.54,-41.29 39.81,-61.22 13.27,-19.93 27.48,-39.39 42.64,-58.37 15.17,-18.98 29.85,-37.02 44.07,-54.1 14.21,-17.09 28.9,-33.22 44.06,-48.41 15.16,-15.19 29.85,-29.9 44.07,-44.14 14.22,-14.24 28.91,-27.05 44.07,-38.44 53.07,-49.35 99.51,-88.27 139.31,-116.74 18.95,-15.19 32.22,-25.63 39.81,-31.32 3.79,-1.9 7.57,-4.74 11.37,-8.54l2.84 -2.85 11.37 17.09 213.22 199.32c34.12,-28.47 61.13,-55.52 81.02,-81.15 19.91,-25.63 35.07,-48.41 45.49,-68.34 10.43,-19.93 17.53,-36.07 21.33,-48.41 3.79,-12.34 5.69,-18.51 5.69,-18.51 11.37,17.09 27.48,30.37 48.33,39.87l372.43 142.37c49.28,-49.35 80.08,-91.59 92.4,-126.71 12.32,-35.12 19.43,-53.63 21.33,-55.53 11.37,17.09 27.48,30.37 48.33,39.87l378.12 145.22c32.22,7.59 61.6,8.54 88.14,2.85 20.85,-3.8 40.75,-13.29 59.7,-28.48 18.96,-15.19 28.43,-39.86 28.43,-74.03 5.69,26.57 3.79,52.2 -5.69,76.88 -9.48,20.88 -26.53,44.13 -51.17,69.76 -24.64,25.63 -64.44,48.88 -119.41,69.76l0 868.47c9.48,34.17 30.33,56.95 62.55,68.34l39.8 14.24 -39.8 14.24c-32.22,11.39 -53.07,34.17 -62.55,68.34l0 518.24 11.37 11.39z"/>
   <path class="fil0" d="M9229.04 1875.19c15.16,13.29 32.69,19.93 52.59,19.93 19.9,0 37.43,-6.64 52.59,-19.93l22.74 -17.09c0,9.49 -10.42,24.68 -31.27,45.56 -20.85,20.88 -44.54,44.14 -71.08,69.76 -26.53,25.63 -52.12,53.15 -76.76,82.57 -24.64,29.43 -40.75,58.37 -48.33,86.85l-170.58 -159.46c-13.26,-9.49 -26.53,-18.03 -39.8,-25.63 -30.33,-13.29 -60.66,-11.39 -90.98,5.69 11.37,-13.29 23.69,-23.73 36.96,-31.32 11.37,-7.59 25.11,-14.24 41.22,-19.93 16.11,-5.7 33.64,-6.65 52.59,-2.85l0 -1537.62 -275.77 -105.35 0 1791.04c28.43,7.59 52.12,17.08 71.07,28.47 18.95,11.39 34.12,22.78 45.49,34.17 13.26,13.29 22.74,28.48 28.43,45.56 -37.91,-22.78 -78.19,-28 -120.83,-15.66 -42.65,12.34 -82.45,38.44 -119.41,78.31 -36.96,39.86 -67.29,92.54 -90.98,158.03 -23.7,65.49 -35.54,140.95 -35.54,226.37 3.79,-1.9 9.48,-2.85 17.06,-2.85 15.16,0 27.96,5.7 38.38,17.09 10.42,11.39 14.68,25.63 12.79,42.71 -3.79,26.57 -18.95,41.76 -45.49,45.56 -15.17,1.9 -28.91,-2.37 -41.22,-12.81 -12.32,-10.44 -18.48,-23.25 -18.48,-38.44l0 -2.85 0 -1306.98c-5.69,-37.97 -27.48,-63.59 -65.39,-76.88l-36.96 -14.24 36.96 -14.24c37.91,-13.29 59.7,-38.91 65.39,-76.88l0 -711.86c0,-39.87 -15.16,-73.08 -45.49,-99.66l-122.25 -105.35c-13.27,-11.39 -27.48,-16.61 -42.65,-15.66 -15.16,0.95 -28.43,6.17 -39.8,15.66l-19.9 19.93c-15.16,15.19 -30.33,30.85 -45.49,46.98 -15.16,16.14 -30.33,32.75 -45.49,49.83 -26.53,32.27 -54.02,70.24 -82.45,113.9 -5.69,9.49 -11.37,19.93 -17.06,31.32 -5.69,11.39 -11.37,22.78 -17.06,34.17 -3.79,9.49 -7.59,19.93 -11.37,31.32 -3.79,11.39 -7.58,23.73 -11.37,37.02 -3.79,11.39 -6.63,22.78 -8.53,34.17 -1.89,11.39 -3.79,23.73 -5.69,37.02l0 8.54 0 2.85 0 5.7 0 8.54 0 8.54 0 5.7 2.84 2.85 0 11.39c0,7.59 0.95,13.29 2.84,17.09l8.53 34.17c3.79,7.59 5.69,12.34 5.69,14.24l5.69 8.54c0,1.9 0.47,3.32 1.42,4.27 0.94,0.95 1.42,2.37 1.42,4.27 11.37,18.98 26.53,35.12 45.49,48.41 18.96,15.19 38.85,23.73 59.7,25.63 18.95,5.69 40.75,6.64 65.39,2.85 20.85,-1.9 40.28,-6.64 58.28,-14.24 18,-7.59 34.59,-17.09 49.75,-28.48 28.43,-22.78 50.23,-47.46 65.39,-74.03 3.79,-7.59 6.63,-14.24 8.53,-19.93 1.9,-5.69 4.74,-12.34 8.53,-19.93 5.68,-11.39 8.53,-22.78 8.53,-34.17 3.79,-9.49 5.69,-18.51 5.69,-27.05 0,-8.54 0.94,-15.66 2.84,-21.35l0 -14.24 0 -5.7 0 5.7 0 14.24c0,5.7 -0.47,12.81 -1.42,21.35 -0.94,8.54 -2.37,17.56 -4.26,27.05 -3.79,15.19 -6.63,27.53 -8.53,37.02 -3.79,5.69 -6.63,11.86 -8.53,18.51 -1.9,6.64 -4.74,12.81 -8.53,18.51 -7.58,15.19 -16.58,29.42 -27.01,42.71 -10.43,13.29 -23.22,25.63 -38.38,37.02 -28.43,22.78 -65.39,38.91 -110.88,48.41 -22.74,3.8 -44.54,2.85 -65.39,-2.85 -24.64,-3.8 -46.44,-12.34 -65.39,-25.63 -9.48,-7.59 -18.95,-15.66 -28.43,-24.2 -9.48,-8.54 -17.06,-18.51 -22.74,-29.9 -1.9,-1.9 -2.84,-3.32 -2.84,-4.27 0,-0.95 -0.95,-2.37 -2.84,-4.27l-2.85 -5.69 -8.53 -17.09c-1.9,-7.59 -3.79,-14.24 -5.69,-19.93 -1.9,-5.69 -3.79,-11.39 -5.69,-17.08 0,-9.49 -0.95,-16.14 -2.85,-19.93l0 -8.54 0 -5.69 -2.84 -2.85 0 -11.39 0 -8.54 0 -5.7 0 -2.85 0 -11.39c0,-13.29 0.94,-25.63 2.84,-37.02 1.9,-11.39 4.74,-23.73 8.53,-37.02 3.79,-13.29 7.58,-25.63 11.37,-37.02 3.79,-11.39 7.58,-22.78 11.37,-34.17 5.69,-13.29 11.37,-25.15 17.06,-35.59 5.69,-10.44 11.37,-21.36 17.06,-32.75 13.27,-20.88 26.53,-41.29 39.8,-61.22 13.27,-19.93 27.48,-39.39 42.65,-58.37 15.16,-18.98 29.85,-37.02 44.07,-54.1 14.22,-17.09 28.91,-33.22 44.07,-48.41 15.16,-15.19 29.85,-29.9 44.06,-44.14 14.22,-14.24 28.91,-27.05 44.07,-38.44 53.07,-49.35 99.51,-88.27 139.31,-116.74 18.95,-15.19 32.22,-25.63 39.8,-31.32 3.79,-1.9 7.58,-4.74 11.37,-8.54l2.84 -2.85 11.37 17.09 213.23 199.32c34.12,-28.47 61.13,-55.52 81.02,-81.15 19.9,-25.63 35.07,-48.41 45.49,-68.34 10.42,-19.93 17.53,-36.07 21.33,-48.41 3.79,-12.34 5.68,-18.51 5.68,-18.51 11.37,17.09 27.48,30.37 48.33,39.87l378.12 145.22c32.22,7.59 61.6,8.54 88.13,2.85 20.85,-3.8 40.75,-13.29 59.7,-28.48 18.96,-15.19 28.43,-39.86 28.43,-74.03 5.69,26.57 3.8,52.2 -5.69,76.88 -9.48,20.88 -26.53,44.13 -51.17,69.76 -24.64,25.63 -64.44,48.88 -119.41,69.76l0 854.23c1.9,20.88 9.48,39.39 22.74,55.53 13.27,16.13 30.33,28 51.17,35.59l42.65 11.39 -42.65 14.24c-20.85,7.59 -37.91,19.46 -51.17,35.59 -13.26,16.14 -20.85,34.65 -22.74,55.53l0 489.76 11.37 11.39zm-1384.56 -1779.65c5.69,26.57 3.79,52.2 -5.69,76.88 -9.47,20.88 -26.53,44.13 -51.17,69.76 -24.64,25.63 -64.44,48.88 -119.41,69.76l0 865.62c9.48,36.07 31.27,59.8 65.39,71.19l36.96 14.24 -36.96 14.24c-34.11,11.39 -55.91,36.07 -65.39,74.04l0 392.94 0 11.39c0,36.07 14.21,66.44 42.64,91.12 -53.07,-3.8 -106.14,9.49 -159.2,39.87 -53.07,30.37 -101.41,64.54 -145,102.51 -43.59,37.96 -79.61,73.08 -108.04,105.35 -28.43,32.27 -42.64,48.41 -42.64,48.41 -72.03,-30.37 -135.52,-57.9 -190.48,-82.57 -24.64,-9.49 -47.86,-19.46 -69.66,-29.9 -21.8,-10.44 -42.17,-20.41 -61.13,-29.9 -20.84,-9.49 -40.74,-18.04 -59.7,-25.63 -26.53,-9.49 -51.17,-15.19 -73.92,-17.08 -20.85,-1.9 -41.7,-0.48 -62.55,4.27 -20.85,4.74 -38.85,15.66 -54.02,32.74 11.37,-20.88 26.54,-39.86 45.49,-56.95 15.17,-15.19 35.06,-28.95 59.71,-41.29 24.64,-12.34 53.07,-18.51 85.29,-18.51l0 -523.93c-5.69,-37.97 -27.48,-63.59 -65.39,-76.88l-36.96 -14.24 36.96 -14.24c37.91,-13.29 59.7,-38.91 65.39,-76.88l0 -754.57c-79.61,-24.68 -135.04,-58.37 -166.31,-101.08 -31.28,-42.71 -50.7,-84 -58.28,-123.87 -7.58,-47.46 -2.84,-96.81 14.22,-148.07 -9.48,36.07 -11.37,70.71 -5.69,103.93 5.69,33.22 17.54,62.17 35.54,86.85 18,24.68 42.64,44.61 73.92,59.8 31.28,15.19 67.76,22.78 109.46,22.78 60.65,0 112.78,-16.13 156.37,-48.41 43.59,-32.27 81.5,-67.39 113.72,-105.35 34.12,-45.56 65.39,-96.81 93.82,-153.76 11.37,17.09 27.48,30.37 48.33,39.87l378.12 145.22c32.22,7.59 61.6,8.54 88.13,2.85 20.85,-3.8 40.75,-13.29 59.7,-28.48 18.96,-15.19 28.43,-39.86 28.43,-74.03zm-434.98 276.2l-275.77 -105.35 0 1534.77 275.77 105.35 0 -1534.77z"/>
   <path class="fil0" d="M10943.39 95.53c5.69,26.57 3.79,52.2 -5.69,76.88 -9.48,20.88 -26.53,44.13 -51.17,69.76 -24.64,25.63 -64.44,48.88 -119.41,69.76l0 859.93c5.69,37.96 27.48,63.59 65.39,76.88l36.96 14.24 -36.96 14.24c-37.91,13.29 -59.71,39.87 -65.39,79.73l0 398.64c0,37.97 14.22,68.34 42.65,91.12 -36.01,-1.9 -72.03,3.8 -108.04,17.09 -36.01,13.29 -70.6,30.85 -103.77,52.68 -33.17,21.83 -64.44,46.03 -93.82,72.61 -29.37,26.57 -54.96,50.78 -76.76,72.61 -21.79,21.83 -39.33,40.81 -52.59,56.95 -13.27,16.13 -19.9,24.2 -19.9,24.2 -72.03,-30.37 -135.52,-57.9 -190.48,-82.57 -24.64,-9.49 -47.86,-19.46 -69.65,-29.9 -21.8,-10.44 -42.17,-20.41 -61.13,-29.9 -20.85,-9.49 -40.75,-18.04 -59.7,-25.63 -62.55,-34.17 -123.2,-56.47 -181.95,-66.91 -58.76,-10.44 -110.88,-9.49 -156.37,2.85 -45.49,12.34 -81.97,35.12 -109.46,68.34 -27.48,33.22 -41.22,76.41 -41.22,129.56 0,60.75 9.47,108.2 28.43,142.37 18.96,34.17 40.75,60.74 65.39,79.73 26.53,20.88 57.8,35.12 93.81,42.71 -32.22,0 -61.6,-8.07 -88.13,-24.2 -26.54,-16.13 -50.23,-36.54 -71.08,-61.22 -20.85,-24.68 -36.96,-52.68 -48.33,-84 -11.37,-31.32 -17.06,-61.22 -17.06,-89.69 0,-53.15 9,-106.78 27,-160.88 18.01,-54.1 47.39,-101.56 88.14,-142.37 40.75,-40.81 94.77,-71.66 162.05,-92.54 67.28,-20.88 150.2,-25.63 248.76,-14.24l0 -355.93c-9.48,-36.07 -30.33,-59.8 -62.55,-71.19l-39.8 -14.24 39.8 -14.24c32.22,-11.39 53.07,-34.17 62.55,-68.34l0 -720.4c0,-39.87 -15.16,-73.08 -45.49,-99.66l-122.25 -105.35c-13.27,-11.39 -27.48,-16.61 -42.65,-15.66 -15.16,0.95 -28.43,6.17 -39.8,15.66l-19.9 19.93c-15.16,15.19 -30.33,30.85 -45.49,46.98 -15.16,16.14 -30.33,32.75 -45.49,49.83 -26.53,32.27 -54.02,70.24 -82.44,113.9 -5.69,9.49 -11.37,19.93 -17.06,31.32 -5.68,11.39 -11.37,22.78 -17.06,34.17 -3.79,9.49 -7.58,19.93 -11.37,31.32 -3.8,11.39 -7.59,23.73 -11.37,37.02 -3.79,11.39 -6.63,22.78 -8.53,34.17 -1.89,11.39 -3.79,23.73 -5.68,37.02l0 8.54 0 2.85 0 5.7 0 8.54 0 8.54 0 5.7 2.84 2.85 0 11.39c0,7.59 0.94,13.29 2.84,17.09l8.53 34.17c3.79,7.59 5.69,12.34 5.69,14.24l5.69 8.54c0,1.9 0.47,3.32 1.42,4.27 0.94,0.95 1.42,2.37 1.42,4.27 11.37,18.98 26.54,35.12 45.49,48.41 18.96,15.19 38.85,23.73 59.7,25.63 18.96,5.69 40.75,6.64 65.39,2.85 20.85,-1.9 40.28,-6.64 58.28,-14.24 18,-7.59 34.59,-17.09 49.75,-28.48 28.43,-22.78 50.23,-47.46 65.39,-74.03 3.79,-7.59 6.63,-14.24 8.53,-19.93 1.9,-5.69 4.74,-12.34 8.53,-19.93 5.69,-11.39 8.53,-22.78 8.53,-34.17 3.79,-9.49 5.68,-18.51 5.68,-27.05 0,-8.54 0.95,-15.66 2.84,-21.35l0 -14.24 0 -5.7 0 5.7 0 14.24c0,5.7 -0.47,12.81 -1.42,21.35 -0.95,8.54 -2.37,17.56 -4.27,27.05 -3.79,15.19 -6.63,27.53 -8.53,37.02 -3.79,5.69 -6.63,11.86 -8.53,18.51 -1.89,6.64 -4.74,12.81 -8.53,18.51 -7.58,15.19 -16.58,29.42 -27.01,42.71 -10.43,13.29 -23.22,25.63 -38.38,37.02 -28.43,22.78 -65.39,38.91 -110.88,48.41 -22.74,3.8 -44.54,2.85 -65.39,-2.85 -24.64,-3.8 -46.43,-12.34 -65.39,-25.63 -9.48,-7.59 -18.96,-15.66 -28.43,-24.2 -9.48,-8.54 -17.06,-18.51 -22.74,-29.9 -1.9,-1.9 -2.84,-3.32 -2.84,-4.27 0,-0.95 -0.94,-2.37 -2.84,-4.27l-2.85 -5.69 -8.52 -17.09c-1.9,-7.59 -3.8,-14.24 -5.69,-19.93 -1.9,-5.69 -3.79,-11.39 -5.69,-17.08 0,-9.49 -0.95,-16.14 -2.85,-19.93l0 -8.54 0 -5.69 -2.84 -2.85 0 -11.39 0 -8.54 0 -5.7 0 -2.85 0 -11.39c0,-13.29 0.95,-25.63 2.84,-37.02 1.9,-11.39 4.74,-23.73 8.53,-37.02 3.79,-13.29 7.58,-25.63 11.37,-37.02 3.79,-11.39 7.59,-22.78 11.37,-34.17 5.69,-13.29 11.37,-25.15 17.06,-35.59 5.69,-10.44 11.37,-21.36 17.06,-32.75 13.27,-20.88 26.54,-41.29 39.81,-61.22 13.27,-19.93 27.48,-39.39 42.64,-58.37 15.17,-18.98 29.85,-37.02 44.07,-54.1 14.21,-17.09 28.9,-33.22 44.06,-48.41 15.16,-15.19 29.85,-29.9 44.07,-44.14 14.22,-14.24 28.91,-27.05 44.07,-38.44 53.07,-49.35 99.51,-88.27 139.31,-116.74 18.95,-15.19 32.22,-25.63 39.81,-31.32 3.79,-1.9 7.57,-4.74 11.37,-8.54l2.84 -2.85 11.37 17.09 213.23 199.32c34.12,-28.47 61.13,-55.52 81.02,-81.15 19.9,-25.63 35.07,-48.41 45.49,-68.34 10.43,-19.93 17.53,-36.07 21.33,-48.41 3.79,-12.34 5.69,-18.51 5.69,-18.51 11.37,17.09 27.48,30.37 48.33,39.87l378.11 145.22c32.22,7.59 61.6,8.54 88.14,2.85 20.85,-3.8 40.75,-13.29 59.7,-28.48 18.96,-15.19 28.43,-39.86 28.43,-74.03zm-434.99 276.2l-275.77 -105.35 0 1534.77 275.77 105.35 0 -1534.77z"/>
  </g>
 </g>
</svg>
