<svg width="1360" height="336" xmlns="http://www.w3.org/2000/svg" fill="none">
 <defs>
  <clipPath id="a">
   <path id="svg_1" d="m0,0l1360,0l0,335.4l-1360,0l0,-335.4z" fill="#fff"/>
  </clipPath>
 </defs>
 <g>
  <title>Layer 1</title>
  <g stroke="null">

   <g stroke="null" id="svg_6">
    <metadata stroke="null" id="svg_7"/>
    <path stroke="null" fill-rule="nonzero" fill="#373435" d="m562.18006,156.26904l-4.5783,1.74702c-4.93009,1.63047 -7.62926,4.8914 -8.09997,9.78158l0,55.54388c-6.1044,4.19211 -11.50396,7.80146 -16.19994,10.8293c-3.99115,2.56164 -7.62926,5.00673 -10.91681,7.33649c-3.28632,2.32854 -4.93009,3.37626 -4.93009,3.14439c-5.63368,4.6583 -10.21198,9.02462 -13.73365,13.10018c-3.52167,4.07556 -5.28313,6.22988 -5.28313,6.46298c-8.68712,-3.72591 -16.55173,-7.10339 -23.59508,-10.13l-23.94811,-10.48088c-7.74694,-4.19211 -15.25975,-6.92796 -22.53845,-8.20877c-7.2787,-1.28082 -13.67543,-1.16427 -19.19268,0.34965c-5.51724,1.51392 -9.97786,4.30866 -13.38186,8.38421c-3.40523,4.07556 -5.10599,9.37427 -5.10599,15.89492c0,7.45304 1.17306,13.27439 3.52167,17.4665c2.34737,4.19211 5.04777,7.45182 8.09997,9.78158c3.28632,2.56164 7.16102,4.30866 11.62164,5.23983c-3.99115,0 -7.68872,-0.99006 -11.09395,-2.96895c-3.40399,-1.97889 -6.39797,-4.48287 -8.9807,-7.5107c-2.58272,-3.02784 -4.5783,-6.46298 -5.98672,-10.30544c-1.40842,-3.84246 -2.11325,-7.5107 -2.11325,-11.00351c0,-6.52065 1.46788,-13.33328 4.4024,-20.43545c2.93452,-7.10339 7.15978,-13.39094 12.67827,-18.86387c5.51724,-5.47293 12.32523,-9.37427 20.4252,-11.70281c8.09997,-2.32854 17.31478,-2.09544 27.64568,0.6993l32.04808,11.52737l34.16133,13.27439l0,-58.33861c-5.40081,4.65708 -9.86142,9.02462 -13.3831,13.10018c-3.52167,4.07556 -5.28313,6.22988 -5.28313,6.46298c-8.92124,-3.95901 -16.78709,-7.45304 -23.59508,-10.48088c-6.10564,-2.56164 -11.56342,-4.89018 -16.37584,-6.98684c-4.81241,-2.09544 -7.21924,-3.25971 -7.21924,-3.49281c-3.28755,-0.93117 -6.33975,-1.51392 -9.15659,-1.74702c-2.58272,-0.2331 -5.16545,-0.05766 -7.74694,0.52386c-2.58272,0.58275 -4.81365,1.92123 -6.69155,4.0179c1.40842,-2.56164 3.28632,-4.8914 5.63492,-6.98684c1.87789,-1.86357 4.28472,-3.5517 7.21924,-5.06562c2.93452,-1.51392 6.51441,-2.27088 10.74091,-2.27088l0,-117.02688c-9.86142,-3.02784 -16.78709,-7.10339 -20.77824,-12.22667c-3.99115,-5.12328 -6.45619,-10.13 -7.39514,-15.02141c-0.94019,-5.82257 -0.35303,-11.87702 1.76022,-18.16579c-1.1743,4.42521 -1.40842,8.61731 -0.70483,12.57632c0.70483,3.95901 2.17271,7.5107 4.4024,10.65509c2.23093,3.14439 5.28313,5.64714 9.15659,7.5107c3.87347,1.86357 8.50998,2.79474 13.91079,2.79474c4.22526,0 8.21641,-1.57158 11.97344,-4.71597c3.75579,-3.14439 7.39514,-6.57953 10.91681,-10.30544c3.52167,-3.72591 7.04334,-7.04573 10.56502,-9.95579c3.52167,-2.91129 7.39514,-4.01667 11.62164,-3.3186c-3.28755,1.63047 -5.81082,3.66825 -7.57228,6.11334c-1.76022,2.44509 -3.11166,4.83252 -4.04937,7.16105c-0.93895,2.79474 -1.5261,5.70602 -1.76022,8.73386l0,125.41109l33.8083,13.27439l0,-128.55547c-1.87913,-0.4662 -3.52167,-1.16427 -4.93009,-2.09544c-1.40842,-0.6993 -2.75862,-1.51392 -4.04937,-2.44509c-1.29198,-0.93117 -2.40683,-2.21199 -3.34577,-3.84246l18.66499,-27.94738c5.86904,6.28877 11.03449,10.77164 15.49511,13.44983c4.46062,2.67819 8.09997,4.25099 10.91805,4.71597c3.28755,0.6993 6.1044,0.34965 8.45176,-1.04772c-0.70483,1.39737 -1.5261,2.56164 -2.46629,3.49281c-0.93771,0.93117 -1.93611,1.92123 -2.99274,2.96895c-1.05663,1.04772 -2.28915,1.92123 -3.69757,2.6193l0.35303,115.97916c0.46947,4.8914 3.16988,8.15111 8.09997,9.78158l4.5783,1.74702l-0.00372,-0.00368zm-202.84979,75.10704c1.87789,1.63047 4.04937,2.44509 6.51441,2.44509c2.46505,0 4.63776,-0.69807 6.51441,-2.09544l2.81684,-2.44509c0,1.16427 -1.29074,3.02784 -3.87347,5.58948c-2.58272,2.56164 -5.51724,5.47293 -8.8048,8.73386c-3.28755,3.26094 -6.45619,6.69608 -9.50839,10.30544c-3.0522,3.61059 -5.04777,7.16105 -5.98672,10.65509l-21.13003,-19.91281c-1.64254,-1.16427 -3.28632,-2.21199 -4.93009,-3.14439c-1.64378,-0.4662 -3.40399,-0.75696 -5.28313,-0.87351c-1.87913,-0.11655 -3.87471,0.40731 -5.98672,1.57158c1.40842,-1.63047 2.93452,-2.91129 4.5783,-3.84246c1.40842,-0.93117 3.11042,-1.68813 5.10599,-2.27088c1.99557,-0.58275 4.16704,-0.64041 6.51441,-0.17544l0,-64.27774c-5.63368,5.12328 -10.15376,9.89813 -13.55776,14.32211c-3.40399,4.42521 -5.22367,6.75374 -5.45903,6.98684l-15.14331,-7.68491l0,68.46984c3.52167,0.93117 6.45619,2.09544 8.80356,3.49281c2.34737,1.39737 4.2265,2.79474 5.63492,4.19211c1.64254,1.63047 2.81684,3.49404 3.52167,5.58948c-4.69598,-2.79474 -9.68553,-3.43515 -14.96742,-1.92123c-5.28189,1.51392 -10.21322,4.71597 -14.79152,9.60737c-4.5783,4.89018 -8.33533,11.35316 -11.26985,19.38773c-2.93576,8.03456 -4.4024,17.29229 -4.4024,27.77194c0.46947,-0.2331 1.1743,-0.34965 2.11325,-0.34965c1.87789,0 3.46345,0.75696 4.7542,2.27088c1.29074,1.51392 1.81844,3.20205 1.58432,5.06562c-0.46947,3.25971 -2.34737,5.12328 -5.63492,5.58948c-1.87913,0.2331 -3.58113,-0.29076 -5.10599,-1.57158c-1.5261,-1.28082 -2.28915,-2.8524 -2.28915,-4.71597l0,-0.34965l0,-154.75583l0,-0.34965l0,-0.6993c-7.98229,-4.89018 -15.61279,-7.9769 -22.89149,-9.25772c-7.2787,-1.28082 -13.73489,-1.10661 -19.36981,0.52386c-5.63492,1.63047 -10.09554,4.59942 -13.3831,8.90807c-3.28632,4.30866 -4.93009,9.72269 -4.93009,16.24457c0,7.45182 1.1743,13.27439 3.52167,17.4665c2.34861,4.19211 5.04777,7.45304 8.09997,9.78158c3.28755,2.56164 7.16102,4.30866 11.62164,5.23983c-3.99115,0 -7.6305,-0.99006 -10.91681,-2.96895c-3.28755,-1.98012 -6.22207,-4.48287 -8.8048,-7.5107c-2.58272,-3.02784 -4.5783,-6.4041 -5.98672,-10.13123c-1.40842,-3.72591 -2.11325,-7.45182 -2.11325,-11.17895c0,-6.52065 1.11485,-13.10018 3.34454,-19.73737c2.23093,-6.6372 5.87028,-12.40211 10.91805,-17.29229c5.04777,-4.8914 11.73932,-8.61731 20.07341,-11.17895c8.33409,-2.56164 18.60553,-3.14439 30.81432,-1.74702l0,-64.27774l0,-17.11685c0,-4.8914 -1.87789,-8.96573 -5.63492,-12.22667l-15.14331,-12.92474c-1.64378,-1.39737 -3.40399,-2.03778 -5.28313,-1.92123c-1.87789,0.11655 -3.52167,0.75696 -4.93009,1.92123c-0.46947,0.4662 -0.88073,0.87351 -1.23252,1.22193c-0.3518,0.34965 -0.76305,0.75696 -1.23252,1.22316c-1.87789,1.86357 -3.75703,3.7848 -5.63492,5.76369c-1.87789,1.98012 -3.75703,4.0179 -5.63492,6.11334c-1.87789,2.32854 -3.63935,4.59942 -5.28313,6.81263c-1.64378,2.21199 -3.28632,4.59942 -4.93009,7.16105c-0.70483,1.39737 -1.40842,2.73708 -2.11325,4.0179c-0.70483,1.28082 -1.40842,2.6193 -2.11325,4.01667c-0.46947,1.39737 -0.93895,2.79474 -1.40842,4.19211c-0.46947,1.39737 -0.93895,2.79474 -1.40842,4.19211c-0.46947,1.39737 -0.82127,2.79474 -1.05663,4.19211c-0.23412,1.39737 -0.46947,2.91129 -0.70359,4.54176l0,1.04772l0,0.34965l0,0.6993l0,1.04772l0,1.04772l0,0.6993l0.3518,0.69807l0,1.04772c0,0.93117 0.11768,1.63047 0.3518,2.09667l1.05663,4.19211c0.46947,0.93117 0.70483,1.51392 0.70483,1.74702l0.70483,1.04772c0,0.2331 0.05946,0.40731 0.1759,0.52386c0.11644,0.11655 0.1759,0.29076 0.1759,0.52386c1.40842,2.32854 3.28755,4.30866 5.63492,5.93912c2.11325,1.63047 4.5783,2.79474 7.39514,3.49281c1.40842,0.2331 2.75862,0.34965 4.0506,0.34965c1.29198,0 2.64094,0 4.04937,0c4.69598,-0.69807 9.15659,-2.56164 13.3831,-5.58948c1.87789,-1.16427 3.46345,-2.56164 4.7542,-4.19211c1.29074,-1.63047 2.40683,-3.25971 3.34577,-4.89018c0.46947,-0.93117 0.82127,-1.74702 1.05663,-2.44509c0.23536,-0.69807 0.58715,-1.51392 1.05663,-2.44509c0.70483,-1.39737 1.05663,-2.79474 1.05663,-4.19211c0.46947,-1.16427 0.70483,-2.27088 0.70483,-3.3186c0,-1.04772 0.11644,-1.92123 0.3518,-2.6193l0,-1.74702l0,-0.34965l0,0.34965l0,1.74702c0,0.6993 -0.05822,1.57158 -0.1759,2.6193c-0.11768,1.04772 -0.29358,2.15433 -0.52893,3.3186c-0.46947,1.86357 -0.82127,3.37749 -1.05663,4.54176c-0.46947,0.69807 -0.82127,1.45503 -1.05663,2.27088c-0.23536,0.81462 -0.58715,1.57158 -1.05663,2.27088c-0.93895,1.86357 -2.05379,3.60936 -3.34577,5.23983c-1.29198,1.63047 -2.8763,3.14439 -4.7542,4.54176c-1.87789,1.39737 -3.99115,2.6193 -6.33975,3.66825c-2.34737,1.04772 -4.81241,1.80468 -7.39514,2.27088c-2.81684,0.4662 -5.51724,0.34965 -8.09997,-0.34965c-3.0522,-0.4662 -5.7526,-1.51392 -8.09997,-3.14439c-1.1743,-0.93117 -2.34861,-1.92123 -3.52167,-2.96895c-1.1743,-1.04772 -2.11325,-2.27088 -2.81684,-3.66825c0,0 -0.23536,-0.2331 -0.70483,-0.6993l-0.35303,-1.04772l-1.05539,-2.09667c-0.23536,-0.69807 -0.47071,-1.45503 -0.70483,-2.27088c-0.23536,-0.81585 -0.46947,-1.57158 -0.70483,-2.27088c0,-0.93117 -0.11768,-1.74702 -0.35303,-2.44509l0,-1.04772l0,-0.34965l-0.3518,-0.69807l0,-1.39737l0,-1.04772l0,-0.34965l0,-0.34965l0,-0.34965l0,-1.04772c0,-1.63047 0.11768,-3.20205 0.3518,-4.71597c0.23536,-1.51392 0.58715,-3.0855 1.05663,-4.71597c0.46947,-1.63047 0.93895,-3.14439 1.40842,-4.54176c0.46947,-1.39737 0.94019,-2.79474 1.40842,-4.19211l4.22526,-8.38421c1.64378,-2.56164 3.28755,-5.06562 4.93133,-7.5107c1.64378,-2.44509 3.40399,-4.83252 5.28189,-7.16105c1.87789,-2.32854 3.69757,-4.54176 5.45903,-6.6372c1.76146,-2.09667 3.58113,-4.07556 5.45903,-5.93912c1.87789,-1.86357 3.69757,-3.61059 5.45903,-5.23983c1.76146,-1.63047 3.58113,-3.25971 5.45903,-4.8914c6.57387,-6.05445 12.32647,-10.8293 17.25656,-14.32211c2.34737,-1.86357 3.99115,-3.14439 4.93133,-3.84246c0.46947,-0.2331 0.93771,-0.58152 1.40842,-1.04772c0.23412,0 0.3518,-0.11655 0.3518,-0.34965l1.40842,2.09667l26.41316,24.45334c4.2265,-3.49281 7.57228,-6.81141 10.03608,-9.95579c2.46505,-3.14439 4.34418,-5.93912 5.63492,-8.38421c1.29198,-2.44509 2.17147,-4.42521 2.64218,-5.93912c0.46947,-1.51392 0.70483,-2.27088 0.70483,-2.27088c1.40842,2.09667 3.40399,3.72591 5.98672,4.8914l46.83712,17.81615c3.99115,0.93117 7.6305,1.04772 10.91681,0.34965c2.58272,-0.4662 5.04777,-1.63047 7.39514,-3.49404c2.34861,-1.86357 3.52167,-4.89018 3.52167,-9.08228c0.70359,3.25971 0.46947,6.4041 -0.70483,9.43193c-1.1743,2.79474 -3.28632,5.76369 -6.33851,8.90807c-3.0522,3.14439 -7.98229,5.99679 -14.79152,8.55842l0,103.05441c0,2.56164 0.76305,4.8914 2.28915,6.98684c1.5261,2.09667 3.58113,3.61059 6.16262,4.54176l4.5783,1.74702l-4.5783,1.74702c-5.63492,1.86357 -8.45176,5.70602 -8.45176,11.52737l0,60.43528l1.40842,1.39737l0.00991,-0.00123zm-33.4565,-67.42212l0,-116.67845l-34.16009,-13.27439l0,116.67845l34.16009,13.27439zm-138.05003,-32.4879c0.70483,3.25971 0.47071,6.4041 -0.70483,9.43193c-1.1743,2.56164 -3.28755,5.41404 -6.33851,8.55842c-3.0522,3.14439 -7.98229,5.99679 -14.79152,8.55842l0,70.21563l1.76022,1.39737c1.87913,1.63047 3.99115,2.50398 6.33975,2.62053c2.34737,0.11655 4.46062,-0.64041 6.33851,-2.27088l2.81684,-2.44509c0,1.16427 -1.29074,3.02784 -3.87347,5.58948c-2.58272,2.56164 -5.51724,5.47293 -8.8048,8.73386c-3.28632,3.26094 -6.45619,6.69608 -9.50839,10.30544c-3.0522,3.61059 -5.04777,7.16105 -5.98672,10.65509l-21.13003,-19.56316c-1.64254,-1.16427 -3.28632,-2.21199 -4.93009,-3.14439c-3.75703,-1.63047 -7.51406,-1.39737 -11.26985,0.69807c1.40842,-1.63047 2.93452,-2.91129 4.5783,-3.84246c1.40842,-0.93117 3.11042,-1.74702 5.10599,-2.44509c1.99557,-0.6993 4.16704,-0.81585 6.51441,-0.34965l0,-68.81949l-34.16009,-12.57632l0,100.95775c3.52167,0.93117 6.45619,2.09544 8.80356,3.49281c2.34737,1.39737 4.22526,2.79474 5.63492,4.19211c1.64254,1.63047 2.81684,3.49404 3.52167,5.58948c-4.69598,-2.79474 -9.68553,-3.43515 -14.96742,-1.92123c-5.28189,1.51392 -10.21198,4.71597 -14.79028,9.60737c-4.5783,4.89018 -8.33533,11.35316 -11.26985,19.38773c-2.93452,8.03456 -4.4024,17.29229 -4.4024,27.77194c0.46947,-0.2331 1.17306,-0.34965 2.11325,-0.34965c1.87789,0 3.46221,0.6993 4.7542,2.09667c1.29074,1.39737 1.81844,3.14439 1.58432,5.23983c-0.47071,3.25971 -2.34737,5.12328 -5.63492,5.58948c-1.87913,0.2331 -3.58113,-0.29076 -5.10599,-1.57158c-1.5261,-1.28082 -2.28915,-2.8524 -2.28915,-4.71597l0,-0.34965l0,-158.24864c-0.46947,-5.35638 -3.52167,-8.96573 -9.15659,-10.8293l-5.28189,-1.74702l5.28189,-1.39737c5.63492,-1.86357 8.68712,-5.47293 9.15659,-10.8293l0,-4.19211l0,-0.34965l0,-0.34965l0,-0.34965c-7.98229,-4.8914 -15.61279,-7.9769 -22.89149,-9.25772c-7.2787,-1.28082 -13.73489,-1.10661 -19.36981,0.52386c-5.63492,1.63047 -10.09554,4.59942 -13.3831,8.90807c-3.28632,4.30866 -4.93009,9.72392 -4.93009,16.24457c0,7.45304 1.1743,13.27439 3.52167,17.4665c2.34861,4.19211 5.04777,7.45182 8.09997,9.78158c3.28632,2.56164 7.16102,4.30866 11.62164,5.23983c-3.99115,0 -7.6305,-0.99006 -10.91681,-2.96895c-3.28755,-1.97889 -6.22207,-4.48287 -8.8048,-7.5107c-2.58272,-3.02784 -4.5783,-6.4041 -5.98672,-10.13c-1.40842,-3.72591 -2.11325,-7.45182 -2.11325,-11.17895c0,-7.91801 1.64378,-15.83603 4.93009,-23.75527c3.28632,-7.91801 8.92124,-14.32211 16.90353,-19.21351c-1.87789,0 -3.16988,-0.11655 -3.87347,-0.34965c-3.0522,-0.4662 -5.7526,-1.51392 -8.09997,-3.14439c-1.1743,-0.93117 -2.34861,-1.92123 -3.52167,-2.96895c-1.1743,-1.04772 -2.11325,-2.27088 -2.81684,-3.66825c-0.46947,-0.4662 -0.70483,-0.6993 -0.70483,-0.6993l-0.35303,-1.04772l-1.05663,-2.09667c-0.23536,-0.93117 -0.46947,-1.74702 -0.70483,-2.44509c-0.23536,-0.69807 -0.46947,-1.39737 -0.70483,-2.09544c0,-0.93117 -0.11768,-1.74702 -0.35303,-2.44509l0,-1.04772l0,-0.69807l-0.3518,-0.34965l0,-1.39737l0,-1.04772l0,-0.6993l0,-0.34965l0,-1.39737c0,-1.63047 0.11644,-3.14439 0.3518,-4.54176c0.23412,-1.39737 0.58715,-2.91129 1.05663,-4.54176c0.46947,-1.63047 0.93895,-3.14439 1.40842,-4.54176c0.46947,-1.39737 0.93895,-2.79474 1.40842,-4.19211l4.22526,-8.38421c1.64378,-2.56164 3.28632,-5.06562 4.93009,-7.5107c1.64378,-2.44509 3.40399,-4.83252 5.28313,-7.16105c1.87789,-2.32854 3.69757,-4.54176 5.45903,-6.6372c1.76146,-2.09667 3.58113,-4.07556 5.45903,-5.93912c1.87789,-1.86357 3.69757,-3.66825 5.45779,-5.41526c1.76146,-1.74702 3.58113,-3.3186 5.45903,-4.71597c6.57387,-6.05445 12.32647,-10.8293 17.25656,-14.32211c2.34737,-1.86357 3.99115,-3.14439 4.93009,-3.84246c0.46947,-0.2331 0.93895,-0.58152 1.40842,-1.04772l0.3518,-0.34965l1.40842,2.09667l26.41316,24.45334c4.22526,-3.49281 7.57228,-6.81141 10.03608,-9.95579c2.46505,-3.14439 4.34418,-5.93912 5.63492,-8.38421c1.29074,-2.44509 2.17147,-4.42521 2.64218,-5.93912c0.46947,-1.51392 0.70359,-2.27088 0.70359,-2.27088c1.40842,2.09667 3.40399,3.72591 5.98672,4.8914l46.83836,17.81615c3.99115,0.93117 7.6305,1.04772 10.91681,0.34965c2.58272,-0.4662 5.04777,-1.63047 7.39514,-3.49404c2.34737,-1.86357 3.52167,-4.89018 3.52167,-9.08228c0.70483,3.25971 0.47071,6.4041 -0.70483,9.43193c-1.1743,2.56164 -3.28755,5.41404 -6.33851,8.55842c-3.0522,3.14439 -7.98229,5.99679 -14.79152,8.55842l0,67.42212l0,5.58948c0,4.6583 1.76022,8.38421 5.28313,11.17895c-5.16545,-0.2331 -10.21322,0.6993 -15.14331,2.79474c-4.93009,2.09667 -9.62607,4.77485 -14.08669,8.03456l23.94811,9.08351c3.99115,0.93117 7.6305,1.04772 10.91681,0.34965c2.58272,-0.4662 5.04777,-1.63047 7.39514,-3.49404c2.34737,-1.86357 3.52167,-4.89018 3.52167,-9.08228l0.00991,0.00245zm-120.08988,-73.70967c0,-4.8914 -1.87913,-8.96573 -5.63492,-12.22667l-15.14331,-12.92474c-1.64378,-1.39737 -3.40399,-2.03778 -5.28313,-1.92123c-1.87789,0.11655 -3.52167,0.75696 -4.93009,1.92123l-2.46505,2.44509c-1.87789,1.86357 -3.75703,3.7848 -5.63492,5.76369c-1.87789,1.98012 -3.75703,4.0179 -5.63492,6.11334c-3.28755,3.95901 -6.69155,8.61731 -10.21322,13.97369c-0.70483,1.39737 -1.40842,2.73708 -2.11325,4.0179c-0.70483,1.28082 -1.40842,2.6193 -2.11325,4.01667c-0.46947,1.16427 -0.94019,2.44509 -1.40842,3.84246c-0.46947,1.39737 -0.93895,2.91129 -1.40842,4.54176c-0.47071,1.39737 -0.82127,2.79474 -1.05663,4.19211c-0.23536,1.39737 -0.46947,2.91129 -0.70483,4.54176l0,1.04772l0,0.34965l0,0.6993l0,1.04772l0,1.04772l0,0.6993l0.3518,0.34965l0,1.39737c0,0.93117 0.11644,1.63047 0.3518,2.09667l1.05663,4.19211c0.46947,0.93117 0.70359,1.51392 0.70359,1.74702l0.70483,1.04772c0,0.2331 0.05822,0.40731 0.1759,0.52386c0.11644,0.11655 0.1759,0.29076 0.1759,0.52386c1.40842,2.32854 3.28632,4.30866 5.63492,5.93912c2.34861,1.86357 4.81241,2.91129 7.39514,3.14439c1.17306,0.4662 2.17147,0.69807 2.99398,0.69807c0.82127,0 1.702,0 2.64094,0c2.34737,-1.16427 4.81365,-2.27088 7.39514,-3.3186c2.58149,-1.04772 5.39957,-1.80468 8.45176,-2.27088c3.52167,-2.79474 6.22207,-5.82257 8.09997,-9.08228c0.46947,-0.93117 0.82127,-1.74702 1.05663,-2.44509c0.23412,-0.69807 0.58715,-1.51392 1.05663,-2.44509c0.70483,-1.39737 1.05663,-2.79474 1.05663,-4.19211c0.46947,-1.16427 0.70483,-2.27088 0.70483,-3.3186c0,-1.04772 0.11644,-1.92123 0.3518,-2.6193l0,-1.74702l0,-0.6993l0,0.6993l0,1.74702c0,0.6993 -0.05822,1.57158 -0.1759,2.6193c-0.11644,1.04772 -0.29358,2.15433 -0.52769,3.3186c-0.46947,1.86357 -0.82127,3.37749 -1.05663,4.54176c-0.46947,0.69807 -0.82127,1.45503 -1.05663,2.27088c-0.23536,0.81462 -0.58715,1.57158 -1.05663,2.27088c-0.93895,1.63047 -1.93735,3.20205 -2.99398,4.71597c-1.05663,1.51392 -2.40683,2.8524 -4.04937,4.01667c3.52167,-0.4662 7.2787,-0.75696 11.26985,-0.87351c3.99115,-0.11655 8.33409,0.17544 13.03006,0.87351l0,-48.90668l0.00248,-0.00368zm66.20694,-10.48088l-34.16009,-13.27439l0,84.18932l34.16009,13.27439l0,-84.19055l0,0.00123z" class="fil0"/>
    <path stroke="null" fill-rule="nonzero" fill="#373435" d="m799.18994,231.37731c1.87913,1.63047 4.0506,2.44509 6.51441,2.44509c2.46505,0 4.63776,-0.81462 6.51441,-2.44509l2.81684,-2.09667c0,1.16427 -1.29074,3.02784 -3.87347,5.58948c-2.58272,2.56164 -5.51724,5.41526 -8.8048,8.55842c-3.28632,3.14439 -6.45619,6.52065 -9.50839,10.13c-3.05344,3.61059 -5.04777,7.16105 -5.98672,10.65509l-21.13003,-19.56316c-1.64378,-1.16427 -3.28755,-2.21199 -4.93009,-3.14439c-3.75579,-1.63047 -7.51282,-1.39737 -11.26985,0.69807c1.40842,-1.63047 2.93452,-2.91129 4.5783,-3.84246c1.40842,-0.93117 3.11042,-1.74702 5.10599,-2.44509c1.99557,-0.6993 4.16828,-0.81585 6.51565,-0.34965l0,-188.64111l-34.16133,-12.92474l0,7.68491l0,102.70477c0.47071,5.12328 3.16988,8.50076 8.09997,10.13l4.93009,1.74702l-4.93009,1.74702c-2.34737,0.69807 -4.16828,1.97889 -5.45903,3.84246c-1.29074,1.86357 -2.17147,3.95901 -2.64094,6.28755l0,61.83265l1.40842,1.39737c1.87913,1.63047 4.04937,2.44509 6.51441,2.44509c2.46505,0 4.63776,-0.81462 6.51441,-2.44509l2.81684,-2.09667c0,1.16427 -1.29074,3.02784 -3.87347,5.58948c-2.58272,2.56164 -5.51724,5.41526 -8.8048,8.55842c-3.28632,3.14439 -6.45619,6.52065 -9.50839,10.13c-3.0522,3.61059 -5.04653,7.16105 -5.98672,10.65509l-21.13003,-19.56316c-1.64378,-1.16427 -3.28755,-2.21199 -4.93009,-3.14439c-3.75703,-1.63047 -7.51282,-1.39737 -11.26985,0.69807c1.40842,-1.63047 2.93452,-2.91129 4.5783,-3.84246c1.40842,-0.93117 3.11042,-1.74702 5.10599,-2.44509c1.99557,-0.6993 4.16704,-0.81585 6.51441,-0.34965l0,-69.16914c-1.1743,-4.19211 -3.75703,-6.98684 -7.74694,-8.38421l-4.5783,-1.74702l4.5783,-1.74702c3.99115,-1.39737 6.57387,-4.19211 7.74694,-8.38421l0,-99.21073l-34.16009,-12.92474l0,219.73164c3.52167,0.93117 6.45619,2.09544 8.80356,3.49281c2.34737,1.39737 4.2265,2.79474 5.63492,4.19211c1.64254,1.63047 2.81684,3.49404 3.52167,5.58948c-4.69598,-2.79474 -9.68553,-3.43515 -14.96742,-1.92123c-5.28189,1.51392 -10.21322,4.71597 -14.79152,9.60737c-4.5783,4.89018 -8.33533,11.35316 -11.26985,19.38773c-2.93452,8.03456 -4.4024,17.29229 -4.4024,27.77194c0.46947,-0.2331 1.1743,-0.34965 2.11325,-0.34965c1.87789,0 3.46345,0.75696 4.7542,2.27088c1.29074,1.51392 1.81968,3.20205 1.58432,5.06562c-0.46947,3.25971 -2.34737,5.12328 -5.63492,5.58948c-1.87913,0.2331 -3.58113,-0.29076 -5.10599,-1.57158c-1.5261,-1.28082 -2.28915,-2.8524 -2.28915,-4.71597l0,-0.34965l0,-161.39303c-1.1743,-4.19211 -3.75703,-6.98684 -7.74817,-8.38421l-4.5783,-1.74702l4.5783,-1.74702c3.99115,-1.39737 6.57387,-4.19211 7.74817,-8.38421l0,-71.26458l0,-17.11685c0,-4.8914 -1.87913,-8.96573 -5.63492,-12.22667l-15.14331,-12.92474c-1.64378,-1.39737 -3.40399,-2.03778 -5.28313,-1.92123c-1.87789,0.11655 -3.52167,0.75696 -4.93009,1.92123l-2.46505,2.44509c-1.87789,1.86357 -3.75703,3.7848 -5.63492,5.76369c-1.87789,1.98012 -3.75703,4.0179 -5.63492,6.11334c-3.28632,3.95901 -6.69155,8.61731 -10.21198,13.97369c-0.70483,1.16427 -1.40842,2.44509 -2.11325,3.84246c-0.70359,1.39737 -1.40842,2.79474 -2.11325,4.19211c-0.46947,1.16427 -0.93895,2.44509 -1.40842,3.84246c-0.47071,1.39737 -0.94019,2.91129 -1.40842,4.54176c-0.46947,1.39737 -0.82127,2.79474 -1.05663,4.19211c-0.23412,1.39737 -0.46947,2.91129 -0.70359,4.54176l0,1.04772l0,0.34965l0,0.6993l0,1.04772l0,1.04772l0,0.6993l0.3518,0.34965l0,1.39737c0,0.93117 0.11644,1.63047 0.3518,2.09667l1.05663,4.19211c0.46947,0.93117 0.70483,1.51392 0.70483,1.74702l0.70483,1.04772c0,0.2331 0.05822,0.40731 0.1759,0.52386c0.11644,0.11655 0.1759,0.29076 0.1759,0.52386c1.40842,2.32854 3.28755,4.30866 5.63492,5.93912c2.34737,1.86357 4.81241,2.91129 7.39514,3.14439c2.34861,0.69807 5.04777,0.81462 8.09997,0.34965c2.58272,-0.2331 4.98955,-0.81462 7.21924,-1.74702c2.22969,-0.93117 4.28472,-2.09667 6.16262,-3.49404c3.52167,-2.79474 6.22207,-5.82257 8.09997,-9.08228c0.46947,-0.93117 0.82127,-1.74702 1.05663,-2.44509c0.23536,-0.69807 0.58715,-1.51392 1.05663,-2.44509c0.70483,-1.39737 1.05663,-2.79474 1.05663,-4.19211c0.46947,-1.16427 0.70359,-2.27088 0.70359,-3.3186c0,-1.04772 0.11768,-1.92123 0.3518,-2.6193l0,-1.74702l0,-0.6993l0,0.6993l0,1.74702c0,0.6993 -0.05822,1.57158 -0.1759,2.6193c-0.11768,1.04772 -0.29358,2.15433 -0.52893,3.3186c-0.46947,1.86357 -0.82127,3.37749 -1.05663,4.54176c-0.46947,0.69807 -0.82127,1.45503 -1.05663,2.27088c-0.23412,0.81462 -0.58715,1.57158 -1.05539,2.27088c-0.94019,1.86357 -2.05503,3.60936 -3.34577,5.23983c-1.29198,1.63047 -2.8763,3.14439 -4.7542,4.54176c-3.52167,2.79474 -8.09997,4.77363 -13.73489,5.93912c-2.81684,0.4662 -5.51724,0.34965 -8.09997,-0.34965c-3.0522,-0.4662 -5.75136,-1.51392 -8.09997,-3.14439c-1.1743,-0.93117 -2.34861,-1.92123 -3.52167,-2.96895c-1.1743,-1.04772 -2.11325,-2.27088 -2.81684,-3.66825c-0.23536,-0.2331 -0.3518,-0.40731 -0.3518,-0.52386c0,-0.11655 -0.11644,-0.29076 -0.3518,-0.52386l-0.35303,-0.69807l-1.05539,-2.09667c-0.23536,-0.93117 -0.46947,-1.74702 -0.70483,-2.44509c-0.23536,-0.69807 -0.46947,-1.39737 -0.70483,-2.09544c0,-1.16427 -0.11768,-1.98012 -0.35303,-2.44509l0,-1.04772l0,-0.69807l-0.3518,-0.34965l0,-1.39737l0,-1.04772l0,-0.6993l0,-0.34965l0,-1.39737c0,-1.63047 0.11768,-3.14439 0.3518,-4.54176c0.23536,-1.39737 0.58715,-2.91129 1.05663,-4.54176c0.46947,-1.63047 0.93895,-3.14439 1.40842,-4.54176c0.46947,-1.39737 0.94019,-2.79474 1.40842,-4.19211c0.70483,-1.63047 1.40842,-3.0855 2.11325,-4.36632c0.70483,-1.28082 1.40842,-2.62053 2.11325,-4.0179c1.64378,-2.56164 3.28755,-5.06562 4.93133,-7.5107c1.64378,-2.44509 3.40399,-4.83252 5.28189,-7.16105c1.87913,-2.32854 3.69757,-4.54176 5.45903,-6.6372c1.76022,-2.09667 3.57989,-4.07556 5.45779,-5.93912c1.87789,-1.86357 3.69757,-3.66825 5.45903,-5.41526c1.76146,-1.74702 3.58113,-3.3186 5.45903,-4.71597c6.57387,-6.05445 12.32647,-10.8293 17.25656,-14.32211c2.34737,-1.86357 3.99115,-3.14439 4.93133,-3.84246c0.46947,-0.2331 0.93771,-0.58152 1.40842,-1.04772l0.3518,-0.34965l1.40842,2.09667l26.41192,24.45334c4.2265,-3.49281 7.57228,-6.81141 10.03608,-9.95579c2.46629,-3.14439 4.34418,-5.93912 5.63492,-8.38421c1.29198,-2.44509 2.17147,-4.42521 2.64218,-5.93912c0.46947,-1.51392 0.70483,-2.27088 0.70483,-2.27088c1.40842,2.09667 3.40399,3.72591 5.98672,4.8914l46.13353,17.4665c6.1044,-6.05445 9.91964,-11.23661 11.44574,-15.54527c1.5261,-4.30866 2.40683,-6.57953 2.64218,-6.81263c1.40842,2.09667 3.40399,3.72591 5.98672,4.8914l46.83836,17.81615c3.99115,0.93117 7.6305,1.04772 10.91805,0.34965c2.58272,-0.4662 5.04777,-1.63047 7.39514,-3.49404c2.34861,-1.86357 3.52167,-4.89018 3.52167,-9.08228c0.70483,3.25971 0.46947,6.4041 -0.70483,9.43193c-1.1743,2.56164 -3.28632,5.41404 -6.33851,8.55842c-3.0522,3.14439 -7.98229,5.99679 -14.79152,8.55842l0,106.54722c1.1743,4.19211 3.75703,6.98684 7.74817,8.38421l4.93009,1.74702l-4.93009,1.74702c-3.99115,1.39737 -6.57387,4.19211 -7.74817,8.38421l0,63.57967l1.40842,1.39737l0.00743,0z" class="fil0"/>
    <path stroke="null" fill-rule="nonzero" fill="#373435" d="m1357.73231,13.04181c0.70483,3.25971 0.46947,6.4041 -0.70483,9.43193c-1.1743,2.56164 -3.28632,5.41404 -6.33851,8.55842c-3.0522,3.14439 -7.98229,5.99679 -14.79152,8.55842l0,105.4995c0.70483,4.65708 3.40399,7.80146 8.09997,9.43193l4.5783,1.74702l-4.5783,1.74702c-4.69598,1.63047 -7.39638,4.8914 -8.09997,9.78158l0,48.90668c0,4.6583 1.76146,8.38421 5.28313,11.17895c-4.46062,-0.2331 -8.92248,0.4662 -13.3831,2.09667c-4.46062,1.63047 -8.74534,3.7848 -12.85416,6.46298c-4.10882,2.67819 -7.98229,5.64714 -11.62164,8.90807c-3.63811,3.25971 -6.80799,6.22988 -9.50839,8.90807c-2.69916,2.67819 -4.87187,5.00673 -6.51441,6.98684c-1.64378,1.97889 -2.46505,2.96895 -2.46505,2.96895c-8.92248,-3.72591 -16.78709,-7.10339 -23.59508,-10.13c-3.0522,-1.16427 -5.9285,-2.38743 -8.62766,-3.66825c-2.7004,-1.28082 -5.22367,-2.50398 -7.57228,-3.66825c-2.58272,-1.16427 -5.04777,-2.21322 -7.39514,-3.14439c-7.74817,-4.19211 -15.26099,-6.92796 -22.53845,-8.20877c-7.2787,-1.28082 -13.73489,-1.16427 -19.36981,0.34965c-5.63492,1.51392 -10.15376,4.30866 -13.55899,8.38421c-3.40399,4.07556 -5.10599,9.37427 -5.10599,15.89492c0,7.45304 1.17306,13.27439 3.52167,17.4665c2.34861,4.19211 5.04777,7.45182 8.09997,9.78158c3.28632,2.56164 7.15978,4.30866 11.6204,5.23983c-3.99115,0 -7.6305,-0.99006 -10.91681,-2.96895c-3.28755,-1.97889 -6.22207,-4.48287 -8.8048,-7.5107c-2.58272,-3.02784 -4.5783,-6.46298 -5.98672,-10.30544c-1.40842,-3.84246 -2.11325,-7.5107 -2.11325,-11.00351c0,-6.52065 1.11485,-13.10018 3.34454,-19.73737c2.23093,-6.6372 5.87028,-12.45977 10.91805,-17.4665c5.04777,-5.00673 11.73932,-8.79152 20.07341,-11.35316c8.33409,-2.56164 18.60553,-3.14439 30.81432,-1.74702l0,-43.66685c-1.1743,-4.42521 -3.75703,-7.33649 -7.74817,-8.73386l-4.93009,-1.74702l4.93009,-1.74702c3.99115,-1.39737 6.57387,-4.19211 7.74817,-8.38421l0,-88.38143c0,-4.8914 -1.87789,-8.96573 -5.63492,-12.22667l-15.14331,-12.92474c-1.64378,-1.39737 -3.40399,-2.03778 -5.28313,-1.92123c-1.87789,0.11655 -3.52167,0.75696 -4.93009,1.92123l-2.46505,2.44509c-1.87789,1.86357 -3.75703,3.7848 -5.63492,5.76369c-1.87789,1.98012 -3.75703,4.0179 -5.63492,6.11334c-3.28632,3.95901 -6.69155,8.61731 -10.21198,13.97369c-0.70483,1.16427 -1.40842,2.44509 -2.11325,3.84246c-0.70359,1.39737 -1.40842,2.79474 -2.11325,4.19211c-0.46947,1.16427 -0.93895,2.44509 -1.40842,3.84246c-0.47071,1.39737 -0.94019,2.91129 -1.40842,4.54176c-0.46947,1.39737 -0.82127,2.79474 -1.05663,4.19211c-0.23412,1.39737 -0.46947,2.91129 -0.70359,4.54176l0,1.04772l0,0.34965l0,0.6993l0,1.04772l0,1.04772l0,0.6993l0.3518,0.34965l0,1.39737c0,0.93117 0.11644,1.63047 0.3518,2.09667l1.05663,4.19211c0.46947,0.93117 0.70483,1.51392 0.70483,1.74702l0.70483,1.04772c0,0.2331 0.05822,0.40731 0.1759,0.52386c0.11644,0.11655 0.1759,0.29076 0.1759,0.52386c1.40842,2.32854 3.28755,4.30866 5.63492,5.93912c2.34861,1.86357 4.81241,2.91129 7.39514,3.14439c2.34861,0.69807 5.04777,0.81462 8.09997,0.34965c2.58272,-0.2331 4.98955,-0.81462 7.21924,-1.74702c2.22969,-0.93117 4.28472,-2.09667 6.16262,-3.49404c3.52167,-2.79474 6.22207,-5.82257 8.09997,-9.08228c0.46947,-0.93117 0.82127,-1.74702 1.05663,-2.44509c0.23536,-0.69807 0.58715,-1.51392 1.05663,-2.44509c0.70483,-1.39737 1.05663,-2.79474 1.05663,-4.19211c0.46947,-1.16427 0.70359,-2.27088 0.70359,-3.3186c0,-1.04772 0.11768,-1.92123 0.3518,-2.6193l0,-1.74702l0,-0.6993l0,0.6993l0,1.74702c0,0.6993 -0.05822,1.57158 -0.1759,2.6193c-0.11768,1.04772 -0.29358,2.15433 -0.52893,3.3186c-0.46947,1.86357 -0.82127,3.37749 -1.05663,4.54176c-0.46947,0.69807 -0.82127,1.45503 -1.05663,2.27088c-0.23412,0.81462 -0.58715,1.57158 -1.05663,2.27088c-0.93895,1.86357 -2.05379,3.60936 -3.34577,5.23983c-1.29198,1.63047 -2.8763,3.14439 -4.7542,4.54176c-3.52167,2.79474 -8.09997,4.77363 -13.73489,5.93912c-2.81684,0.4662 -5.51724,0.34965 -8.09997,-0.34965c-3.0522,-0.4662 -5.75136,-1.51392 -8.09997,-3.14439c-1.1743,-0.93117 -2.34861,-1.92123 -3.52167,-2.96895c-1.1743,-1.04772 -2.11325,-2.27088 -2.81684,-3.66825c-0.23536,-0.2331 -0.3518,-0.40731 -0.3518,-0.52386c0,-0.11655 -0.11644,-0.29076 -0.3518,-0.52386l-0.35303,-0.69807l-1.05539,-2.09667c-0.23536,-0.93117 -0.47071,-1.74702 -0.70483,-2.44509c-0.23536,-0.69807 -0.46947,-1.39737 -0.70483,-2.09544c0,-1.16427 -0.11768,-1.98012 -0.35303,-2.44509l0,-1.04772l0,-0.69807l-0.3518,-0.34965l0,-1.39737l0,-1.04772l0,-0.6993l0,-0.34965l0,-1.39737c0,-1.63047 0.11768,-3.14439 0.3518,-4.54176c0.23536,-1.39737 0.58715,-2.91129 1.05663,-4.54176c0.46947,-1.63047 0.93895,-3.14439 1.40842,-4.54176c0.46947,-1.39737 0.94019,-2.79474 1.40842,-4.19211c0.70483,-1.63047 1.40842,-3.0855 2.11325,-4.36632c0.70483,-1.28082 1.40842,-2.62053 2.11325,-4.0179c1.64378,-2.56164 3.28755,-5.06562 4.93133,-7.5107c1.64378,-2.44509 3.40399,-4.83252 5.28189,-7.16105c1.87913,-2.32854 3.69757,-4.54176 5.45903,-6.6372c1.76022,-2.09667 3.57989,-4.07556 5.45779,-5.93912c1.87789,-1.86357 3.69757,-3.66825 5.45903,-5.41526c1.76146,-1.74702 3.58113,-3.3186 5.45903,-4.71597c6.57387,-6.05445 12.32647,-10.8293 17.25656,-14.32211c2.34737,-1.86357 3.99115,-3.14439 4.93133,-3.84246c0.46947,-0.2331 0.93771,-0.58152 1.40842,-1.04772l0.3518,-0.34965l1.40842,2.09667l26.41316,24.45334c4.2265,-3.49281 7.57228,-6.81141 10.03608,-9.95579c2.46505,-3.14439 4.34418,-5.93912 5.63492,-8.38421c1.29198,-2.44509 2.17147,-4.42521 2.64218,-5.93912c0.46947,-1.51392 0.70483,-2.27088 0.70483,-2.27088c1.40842,2.09667 3.40399,3.72591 5.98672,4.8914l46.83712,17.81615c3.99115,0.93117 7.6305,1.04772 10.91805,0.34965c2.58272,-0.4662 5.04777,-1.63047 7.39514,-3.49404c2.34861,-1.86357 3.52167,-4.89018 3.52167,-9.08228l0.00248,-0.00736zm-53.88294,33.88527l-34.16009,-12.92474l0,188.29146l34.16009,12.92474l0,-188.29146zm-158.47524,184.449c1.87789,1.63047 4.04937,2.44509 6.51441,2.44509c2.46505,0 4.63652,-0.81462 6.51441,-2.44509l2.81684,-2.09667c0,1.16427 -1.29074,3.02784 -3.87347,5.58948c-2.58272,2.56164 -5.51724,5.41526 -8.8048,8.55842c-3.28632,3.14439 -6.45619,6.52065 -9.50839,10.13c-3.0522,3.61059 -5.04777,7.16105 -5.98672,10.65509l-21.13003,-19.56316c-1.64254,-1.16427 -3.28632,-2.21199 -4.93009,-3.14439c-3.75703,-1.63047 -7.51406,-1.39737 -11.26985,0.69807c1.40842,-1.63047 2.93452,-2.91129 4.5783,-3.84246c1.40842,-0.93117 3.11042,-1.74702 5.10599,-2.44509c1.99557,-0.6993 4.16704,-0.81585 6.51441,-0.34965l0,-188.64111l-34.16009,-12.92474l0,219.73164c3.52167,0.93117 6.45619,2.09544 8.80356,3.49281c2.34737,1.39737 4.2265,2.79474 5.63492,4.19211c1.64254,1.63047 2.81684,3.49404 3.52167,5.58948c-4.69598,-2.79474 -9.68553,-3.43515 -14.96742,-1.92123c-5.28313,1.51392 -10.21322,4.71597 -14.79152,9.60737c-4.5783,4.89018 -8.33533,11.35316 -11.26985,19.38773c-2.93576,8.03456 -4.4024,17.29229 -4.4024,27.77194c0.46947,-0.2331 1.1743,-0.34965 2.11325,-0.34965c1.87789,0 3.46345,0.6993 4.7542,2.09667c1.29074,1.39737 1.81844,3.14439 1.58432,5.23983c-0.46947,3.25971 -2.34737,5.12328 -5.63492,5.58948c-1.87913,0.2331 -3.58113,-0.29076 -5.10599,-1.57158c-1.5261,-1.28082 -2.28915,-2.8524 -2.28915,-4.71597l0,-0.34965l0,-160.34531c-0.70483,-4.6583 -3.40399,-7.80146 -8.09997,-9.43193l-4.5783,-1.74702l4.5783,-1.74702c4.69598,-1.63047 7.39514,-4.77363 8.09997,-9.43193l0,-87.33371c0,-4.8914 -1.87789,-8.96573 -5.63492,-12.22667l-15.14331,-12.92474c-1.64378,-1.39737 -3.40399,-2.03778 -5.28313,-1.92123c-1.87789,0.11655 -3.52167,0.75696 -4.93009,1.92123l-2.46505,2.44509c-1.87789,1.86357 -3.75703,3.7848 -5.63492,5.76369c-1.87789,1.98012 -3.75703,4.0179 -5.63492,6.11334c-3.28632,3.95901 -6.69155,8.61731 -10.21322,13.97369c-0.70483,1.16427 -1.40842,2.44509 -2.11325,3.84246c-0.70483,1.39737 -1.40842,2.79474 -2.11325,4.19211c-0.46947,1.16427 -0.94019,2.44509 -1.40842,3.84246c-0.46947,1.39737 -0.93895,2.91129 -1.40842,4.54176c-0.46947,1.39737 -0.82127,2.79474 -1.05663,4.19211c-0.23412,1.39737 -0.46947,2.91129 -0.70483,4.54176l0,1.04772l0,0.34965l0,0.6993l0,1.04772l0,1.04772l0,0.6993l0.3518,0.34965l0,1.39737c0,0.93117 0.11768,1.63047 0.3518,2.09667l1.05663,4.19211c0.46947,0.93117 0.70483,1.51392 0.70483,1.74702l0.70483,1.04772c0,0.2331 0.05822,0.40731 0.1759,0.52386c0.11644,0.11655 0.1759,0.29076 0.1759,0.52386c1.40842,2.32854 3.28632,4.30866 5.63492,5.93912c2.34861,1.86357 4.81241,2.91129 7.39514,3.14439c2.34737,0.69807 5.04777,0.81462 8.09997,0.34965c2.58272,-0.2331 4.98955,-0.81462 7.21924,-1.74702c2.22969,-0.93117 4.28472,-2.09667 6.16262,-3.49404c3.52167,-2.79474 6.22207,-5.82257 8.09997,-9.08228c0.46947,-0.93117 0.82127,-1.74702 1.05663,-2.44509c0.23536,-0.69807 0.58715,-1.51392 1.05663,-2.44509c0.70359,-1.39737 1.05663,-2.79474 1.05663,-4.19211c0.46947,-1.16427 0.70483,-2.27088 0.70483,-3.3186c0,-1.04772 0.11644,-1.92123 0.3518,-2.6193l0,-1.74702l0,-0.6993l0,0.6993l0,1.74702c0,0.6993 -0.05822,1.57158 -0.1759,2.6193c-0.11644,1.04772 -0.29358,2.15433 -0.52769,3.3186c-0.46947,1.86357 -0.82127,3.37749 -1.05663,4.54176c-0.46947,0.69807 -0.82127,1.45503 -1.05663,2.27088c-0.23536,0.81462 -0.58715,1.57158 -1.05663,2.27088c-0.93895,1.86357 -2.05379,3.60936 -3.34577,5.23983c-1.29198,1.63047 -2.8763,3.14439 -4.7542,4.54176c-3.52167,2.79474 -8.09997,4.77363 -13.73489,5.93912c-2.81684,0.4662 -5.51724,0.34965 -8.09997,-0.34965c-3.0522,-0.4662 -5.7526,-1.51392 -8.09997,-3.14439c-1.1743,-0.93117 -2.34737,-1.92123 -3.52167,-2.96895c-1.1743,-1.04772 -2.11325,-2.27088 -2.81684,-3.66825c-0.23536,-0.2331 -0.3518,-0.40731 -0.3518,-0.52386c0,-0.11655 -0.11768,-0.29076 -0.3518,-0.52386l-0.35303,-0.69807l-1.05663,-2.09667c-0.23536,-0.93117 -0.46947,-1.74702 -0.70483,-2.44509c-0.23536,-0.69807 -0.46947,-1.39737 -0.70483,-2.09544c0,-1.16427 -0.11768,-1.98012 -0.35303,-2.44509l0,-1.04772l0,-0.69807l-0.3518,-0.34965l0,-1.39737l0,-1.04772l0,-0.6993l0,-0.34965l0,-1.39737c0,-1.63047 0.11644,-3.14439 0.3518,-4.54176c0.23536,-1.39737 0.58715,-2.91129 1.05663,-4.54176c0.46947,-1.63047 0.93895,-3.14439 1.40842,-4.54176c0.46947,-1.39737 0.93895,-2.79474 1.40842,-4.19211c0.70483,-1.63047 1.40842,-3.0855 2.11325,-4.36632c0.70483,-1.28082 1.40842,-2.62053 2.11325,-4.0179c1.64378,-2.56164 3.28632,-5.06562 4.93009,-7.5107c1.64378,-2.44509 3.40399,-4.83252 5.28313,-7.16105c1.87789,-2.32854 3.69757,-4.54176 5.45903,-6.6372c1.76146,-2.09667 3.58113,-4.07556 5.45903,-5.93912c1.87789,-1.86357 3.69757,-3.66825 5.45779,-5.41526c1.76146,-1.74702 3.58113,-3.3186 5.45903,-4.71597c6.57387,-6.05445 12.32647,-10.8293 17.25656,-14.32211c2.34737,-1.86357 3.99115,-3.14439 4.93009,-3.84246c0.46947,-0.2331 0.93895,-0.58152 1.40842,-1.04772l0.3518,-0.34965l1.40842,2.09667l26.41316,24.45334c4.2265,-3.49281 7.57228,-6.81141 10.03608,-9.95579c2.46505,-3.14439 4.34418,-5.93912 5.63492,-8.38421c1.29074,-2.44509 2.17147,-4.42521 2.64218,-5.93912c0.46947,-1.51392 0.70359,-2.27088 0.70359,-2.27088c1.40842,2.09667 3.40399,3.72591 5.98672,4.8914l46.83836,17.81615c3.99115,0.93117 7.6305,1.04772 10.91681,0.34965c2.58272,-0.4662 5.04777,-1.63047 7.39514,-3.49404c2.34861,-1.86357 3.52167,-4.89018 3.52167,-9.08228c0.70483,3.25971 0.47071,6.4041 -0.70483,9.43193c-1.1743,2.56164 -3.28632,5.41404 -6.33851,8.55842c-3.0522,3.14439 -7.98229,5.99679 -14.79152,8.55842l0,104.80021c0.23536,2.56164 1.1743,4.83252 2.81684,6.81263c1.64378,1.97889 3.75703,3.43515 6.33851,4.36632l5.28313,1.39737l-5.28313,1.74702c-2.58272,0.93117 -4.69598,2.38743 -6.33851,4.36632c-1.64254,1.98012 -2.58272,4.25099 -2.81684,6.81263l0,60.08563l1.40842,1.39737l0.00991,-0.00245zm-171.50778,-218.33427c0.70483,3.25971 0.46947,6.4041 -0.70483,9.43193c-1.17306,2.56164 -3.28632,5.41404 -6.33851,8.55842c-3.0522,3.14439 -7.98229,5.99679 -14.79152,8.55842l0,106.19757c1.1743,4.42521 3.87347,7.33649 8.09997,8.73386l4.5783,1.74702l-4.5783,1.74702c-4.22526,1.39737 -6.92567,4.42521 -8.09997,9.08351l0,48.20738l0,1.39737c0,4.42521 1.76022,8.15111 5.28189,11.17895c-6.57387,-0.4662 -13.14774,1.16427 -19.72037,4.8914c-6.57387,3.72591 -12.56183,7.91801 -17.96139,12.57632c-5.39957,4.65708 -9.86142,8.96573 -13.3831,12.92474c-3.52167,3.95901 -5.28189,5.93912 -5.28189,5.93912c-8.92248,-3.72591 -16.78709,-7.10339 -23.59508,-10.13c-3.0522,-1.16427 -5.9285,-2.38743 -8.6289,-3.66825c-2.7004,-1.28082 -5.22367,-2.50398 -7.57228,-3.66825c-2.58149,-1.16427 -5.04653,-2.21322 -7.39514,-3.14439c-3.28632,-1.16427 -6.33851,-1.86357 -9.15659,-2.09544c-2.58272,-0.2331 -5.16545,-0.05889 -7.74817,0.52386c-2.58272,0.58152 -4.81241,1.92123 -6.69155,4.01667c1.40842,-2.56164 3.28755,-4.89018 5.63492,-6.98684c1.87913,-1.86357 4.34294,-3.5517 7.39638,-5.06562c3.0522,-1.51392 6.57387,-2.27088 10.56502,-2.27088l0,-64.27774c-0.70483,-4.6583 -3.40399,-7.80146 -8.09997,-9.43193l-4.5783,-1.74702l4.5783,-1.74702c4.69598,-1.63047 7.39514,-4.77363 8.09997,-9.43193l0,-92.57354c-9.86142,-3.02784 -16.72763,-7.16105 -20.6011,-12.40088c-3.87471,-5.23983 -6.28029,-10.30544 -7.21924,-15.19685c-0.93895,-5.82257 -0.3518,-11.87702 1.76146,-18.16579c-1.1743,4.42521 -1.40842,8.67497 -0.70483,12.75053c0.70483,4.07556 2.17271,7.62725 4.4024,10.65509c2.22969,3.02784 5.28189,5.47293 9.15659,7.33649c3.87471,1.86357 8.39355,2.79474 13.55899,2.79474c7.51282,0 13.97025,-1.97889 19.36981,-5.93912c5.39957,-3.95901 10.09554,-8.26766 14.08669,-12.92474c4.2265,-5.58948 8.09997,-11.87702 11.62164,-18.86387c1.40842,2.09667 3.40399,3.72591 5.98672,4.8914l46.83836,17.81615c3.99115,0.93117 7.6305,1.04772 10.91681,0.34965c2.58272,-0.4662 5.04777,-1.63047 7.39514,-3.49404c2.34861,-1.86357 3.52167,-4.89018 3.52167,-9.08228l0,-0.00123zm-53.8817,33.88527l-34.16009,-12.92474l0,188.29146l34.16009,12.92474l0,-188.29146z" class="fil0"/>
   </g>
  </g>
 </g>
</svg>