<svg width="1360" height="336" xmlns="http://www.w3.org/2000/svg" fill="none">
 <defs>
  <clipPath id="a">
   <path fill="#fff" d="m0,0l1360,0l0,335.4l-1360,0l0,-335.4z" id="svg_1"/>
  </clipPath>
 </defs>
 <g>
  <title>Layer 1</title>
  <g stroke="null">

   <g stroke="null" id="svg_8">
    <metadata stroke="null" id="svg_9"/>
    <path stroke="null" fill-rule="nonzero" fill="#373435" d="m187.82355,131.23507c0.70483,3.28032 0.47071,6.44459 -0.70483,9.49157c-1.1743,2.57783 -3.28756,5.44827 -6.33852,8.61253c-3.0522,3.16427 -7.98229,6.0347 -14.79152,8.61253l0,70.65957l1.76022,1.4062c1.87913,1.64078 3.99115,2.51981 6.33975,2.63709c2.34737,0.11729 4.46062,-0.64446 6.33852,-2.28524l2.81684,-2.46055c0,1.17163 -1.29074,3.04698 -3.87347,5.62481c-2.58273,2.57783 -5.51725,5.50753 -8.8048,8.78908c-3.28632,3.28155 -6.45619,6.73842 -9.50839,10.3706c-3.0522,3.63341 -5.04777,7.20633 -5.98672,10.72246l-21.13004,-19.68685c-1.64254,-1.17163 -3.28632,-2.22597 -4.93009,-3.16427c-3.75703,-1.64078 -7.51406,-1.4062 -11.26985,0.70248c1.40842,-1.64078 2.93452,-2.92969 4.5783,-3.86675c1.40842,-0.93706 3.11042,-1.75806 5.10599,-2.46055c1.99557,-0.70372 4.16704,-0.82101 6.51441,-0.35186l0,-69.2546l-34.16011,-12.65583l0,101.59605c3.52167,0.93706 6.45619,2.10869 8.80356,3.51489c2.34737,1.4062 4.22526,2.81241 5.63492,4.21861c1.64254,1.64078 2.81684,3.51613 3.52167,5.62481c-4.69598,-2.81241 -9.68553,-3.45687 -14.96742,-1.93338c-5.28189,1.52349 -10.21198,4.74578 -14.79028,9.66811c-4.5783,4.9211 -8.33533,11.42494 -11.26985,19.5103c-2.93452,8.08536 -4.4024,17.40162 -4.4024,27.94753c0.46947,-0.23457 1.17307,-0.35186 2.11325,-0.35186c1.8779,0 3.46221,0.70372 4.7542,2.10992c1.29074,1.4062 1.81844,3.16427 1.58432,5.27295c-0.47071,3.28032 -2.34737,5.15567 -5.63492,5.62481c-1.87913,0.23457 -3.58113,-0.2926 -5.10599,-1.58152c-1.5261,-1.28892 -2.28915,-2.87043 -2.28915,-4.74578l0,-0.35186l0,-159.24916c-0.46947,-5.39024 -3.52167,-9.02242 -9.1566,-10.89777l-5.28189,-1.75806l5.28189,-1.4062c5.63492,-1.87535 8.68712,-5.50753 9.1566,-10.89777l0,-4.21861l0,-0.35186l0,-0.35186l0,-0.35186c-7.98229,-4.92233 -15.61279,-8.02734 -22.89149,-9.31625c-7.2787,-1.28892 -13.7349,-1.1136 -19.36982,0.52717c-5.63492,1.64078 -10.09555,4.6285 -13.3831,8.96439c-3.28632,4.3359 -4.93009,9.7854 -4.93009,16.34727c0,7.50016 1.1743,13.35832 3.52167,17.57693c2.34861,4.21861 5.04777,7.49893 8.09997,9.84343c3.28632,2.57783 7.16102,4.3359 11.62165,5.27295c-3.99115,0 -7.6305,-0.99632 -10.91682,-2.98772c-3.28756,-1.9914 -6.22208,-4.51121 -8.8048,-7.55819c-2.58273,-3.04698 -4.5783,-6.44459 -5.98672,-10.19405c-1.40842,-3.74946 -2.11325,-7.49893 -2.11325,-11.24963c0,-7.96808 1.64378,-15.93615 4.93009,-23.90546c3.28632,-7.96808 8.92124,-14.41266 16.90354,-19.33499c-1.8779,0 -3.16988,-0.11729 -3.87347,-0.35186c-3.0522,-0.46915 -5.7526,-1.52349 -8.09997,-3.16427c-1.1743,-0.93706 -2.34861,-1.93338 -3.52167,-2.98772c-1.1743,-1.05434 -2.11325,-2.28524 -2.81684,-3.69144c-0.46947,-0.46915 -0.70483,-0.70372 -0.70483,-0.70372l-0.35303,-1.05434l-1.05663,-2.10992c-0.23536,-0.93706 -0.46947,-1.75806 -0.70483,-2.46055c-0.23536,-0.70248 -0.46947,-1.4062 -0.70483,-2.10869c0,-0.93706 -0.11768,-1.75806 -0.35303,-2.46055l0,-1.05434l0,-0.70248l-0.3518,-0.35186l0,-1.4062l0,-1.05434l0,-0.70372l0,-0.35186l0,-1.4062c0,-1.64078 0.11644,-3.16427 0.3518,-4.57047c0.23412,-1.4062 0.58715,-2.92969 1.05663,-4.57047c0.46947,-1.64078 0.93895,-3.16427 1.40842,-4.57047c0.46947,-1.4062 0.93895,-2.81241 1.40842,-4.21861l4.22526,-8.43722c1.64378,-2.57783 3.28632,-5.09764 4.93009,-7.55819c1.64378,-2.46055 3.40399,-4.86307 5.28313,-7.20633c1.8779,-2.34326 3.69757,-4.57047 5.45903,-6.67916c1.76146,-2.10992 3.58113,-4.10132 5.45903,-5.97667c1.8779,-1.87535 3.69757,-3.69144 5.45779,-5.4495c1.76146,-1.75806 3.58113,-3.33958 5.45903,-4.74578c6.57387,-6.09273 12.32648,-10.89777 17.25657,-14.41266c2.34737,-1.87535 3.99115,-3.16427 4.93009,-3.86675c0.46947,-0.23457 0.93895,-0.5852 1.40842,-1.05434l0.3518,-0.35186l1.40842,2.10992l26.41317,24.60795c4.22526,-3.51489 7.57228,-6.85447 10.03609,-10.01874c2.46505,-3.16427 4.34418,-5.97667 5.63492,-8.43722c1.29074,-2.46055 2.17147,-4.45318 2.64218,-5.97667c0.46947,-1.52349 0.70359,-2.28524 0.70359,-2.28524c1.40842,2.10992 3.40399,3.74946 5.98672,4.92233l46.83838,17.92879c3.99115,0.93706 7.6305,1.05434 10.91682,0.35186c2.58273,-0.46915 5.04777,-1.64078 7.39514,-3.51613c2.34737,-1.87535 3.52167,-4.9211 3.52167,-9.13971c0.70483,3.28032 0.47071,6.44459 -0.70483,9.49157c-1.1743,2.57783 -3.28756,5.44827 -6.33852,8.61253c-3.0522,3.16427 -7.98229,6.0347 -14.79152,8.61253l0,67.8484l0,5.62481c0,4.68776 1.76022,8.43722 5.28313,11.24963c-5.16545,-0.23457 -10.21322,0.70372 -15.14332,2.81241c-4.93009,2.10992 -9.62607,4.80504 -14.08669,8.08536l23.94812,9.14094c3.99115,0.93706 7.6305,1.05434 10.91682,0.35186c2.58273,-0.46915 5.04777,-1.64078 7.39514,-3.51613c2.34737,-1.87535 3.52167,-4.9211 3.52167,-9.13971l0.00991,0.00247zm-120.08992,-74.1757c0,-4.92233 -1.87913,-9.02242 -5.63492,-12.30397l-15.14332,-13.00646c-1.64378,-1.4062 -3.40399,-2.05066 -5.28313,-1.93338c-1.8779,0.11729 -3.52167,0.76175 -4.93009,1.93338l-2.46505,2.46055c-1.8779,1.87535 -3.75703,3.80873 -5.63492,5.80013c-1.8779,1.99264 -3.75703,4.0433 -5.63492,6.15199c-3.28756,3.98404 -6.69155,8.67179 -10.21322,14.06204c-0.70483,1.4062 -1.40842,2.75438 -2.11325,4.0433c-0.70483,1.28892 -1.40842,2.63586 -2.11325,4.04206c-0.46947,1.17163 -0.94019,2.46055 -1.40842,3.86675c-0.46947,1.4062 -0.93895,2.92969 -1.40842,4.57047c-0.47071,1.4062 -0.82127,2.81241 -1.05663,4.21861c-0.23536,1.4062 -0.46947,2.92969 -0.70483,4.57047l0,1.05434l0,0.35186l0,0.70372l0,1.05434l0,1.05434l0,0.70372l0.3518,0.35186l0,1.4062c0,0.93706 0.11644,1.64078 0.3518,2.10992l1.05663,4.21861c0.46947,0.93706 0.70359,1.52349 0.70359,1.75806l0.70483,1.05434c0,0.23457 0.05822,0.40989 0.1759,0.52717c0.11644,0.11729 0.1759,0.2926 0.1759,0.52717c1.40842,2.34326 3.28632,4.3359 5.63492,5.97667c2.34861,1.87535 4.81242,2.92969 7.39514,3.16427c1.17307,0.46915 2.17147,0.70248 2.99398,0.70248c0.82127,0 1.702,0 2.64095,0c2.34737,-1.17163 4.81366,-2.28524 7.39514,-3.33958c2.58149,-1.05434 5.39957,-1.81609 8.45177,-2.28524c3.52167,-2.81241 6.22208,-5.85939 8.09997,-9.13971c0.46947,-0.93706 0.82127,-1.75806 1.05663,-2.46055c0.23412,-0.70248 0.58715,-1.52349 1.05663,-2.46055c0.70483,-1.4062 1.05663,-2.81241 1.05663,-4.21861c0.46947,-1.17163 0.70483,-2.28524 0.70483,-3.33958c0,-1.05434 0.11644,-1.93338 0.3518,-2.63586l0,-1.75806l0,-0.70372l0,0.70372l0,1.75806c0,0.70372 -0.05822,1.58152 -0.1759,2.63586c-0.11644,1.05434 -0.29358,2.16795 -0.52769,3.33958c-0.46947,1.87535 -0.82127,3.39884 -1.05663,4.57047c-0.46947,0.70248 -0.82127,1.46423 -1.05663,2.28524c-0.23536,0.81977 -0.58715,1.58152 -1.05663,2.28524c-0.93895,1.64078 -1.93735,3.22229 -2.99398,4.74578c-1.05663,1.52349 -2.40683,2.87043 -4.04937,4.04206c3.52167,-0.46915 7.2787,-0.76175 11.26985,-0.87903c3.99115,-0.11729 8.33409,0.17655 13.03007,0.87903l0,-49.21589l0.00248,-0.0037zm66.20696,-10.54714l-34.16011,-13.35832l0,84.72161l34.16011,13.35832l0,-84.72284l0,0.00123z" class="fil0"/>
    <path stroke="null" fill-rule="nonzero" fill="#373435" d="m562.18,156.19488l-4.5783,1.75806c-4.93009,1.64078 -7.62926,4.92233 -8.09997,9.84343l0,55.89505c-6.1044,4.21861 -11.50397,7.85079 -16.19994,10.89777c-3.99115,2.57783 -7.62926,5.03838 -10.91682,7.38288c-3.28632,2.34326 -4.93009,3.39761 -4.93009,3.16427c-5.63369,4.68776 -10.21198,9.08168 -13.73366,13.183c-3.52167,4.10132 -5.28313,6.26927 -5.28313,6.50385c-8.68712,-3.74946 -16.55174,-7.1483 -23.59509,-10.19405l-23.94812,-10.54714c-7.74694,-4.21861 -15.25976,-6.97176 -22.53846,-8.26067c-7.2787,-1.28892 -13.67544,-1.17163 -19.19268,0.35186c-5.51725,1.52349 -9.97787,4.3359 -13.38186,8.43722c-3.40523,4.10132 -5.10599,9.43354 -5.10599,15.99541c0,7.50016 1.17307,13.35832 3.52167,17.57693c2.34737,4.21861 5.04777,7.49893 8.09997,9.84343c3.28632,2.57783 7.16102,4.3359 11.62165,5.27295c-3.99115,0 -7.68872,-0.99632 -11.09395,-2.98772c-3.40399,-1.9914 -6.39797,-4.51121 -8.9807,-7.55819c-2.58273,-3.04698 -4.5783,-6.50385 -5.98672,-10.3706c-1.40842,-3.86675 -2.11325,-7.55819 -2.11325,-11.07308c0,-6.56187 1.46788,-13.41758 4.4024,-20.56465c2.93452,-7.1483 7.15979,-13.4756 12.67827,-18.98313c5.51725,-5.50753 12.32524,-9.43354 20.42521,-11.7768c8.09997,-2.34326 17.31479,-2.10869 27.64569,0.70372l32.04809,11.60025l34.16134,13.35832l0,-58.70746c-5.40081,4.68652 -9.86143,9.08168 -13.3831,13.183c-3.52167,4.10132 -5.28313,6.26927 -5.28313,6.50385c-8.92124,-3.98404 -16.7871,-7.50016 -23.59509,-10.54714c-6.10564,-2.57783 -11.56343,-4.9211 -16.37584,-7.03102c-4.81242,-2.10869 -7.21924,-3.28032 -7.21924,-3.51489c-3.28756,-0.93706 -6.33975,-1.52349 -9.1566,-1.75806c-2.58273,-0.23457 -5.16545,-0.05803 -7.74694,0.52717c-2.58273,0.58643 -4.81366,1.93338 -6.69155,4.0433c1.40842,-2.57783 3.28632,-4.92233 5.63492,-7.03102c1.8779,-1.87535 4.28472,-3.57415 7.21924,-5.09764c2.93452,-1.52349 6.51441,-2.28524 10.74092,-2.28524l0,-117.76677c-9.86143,-3.04698 -16.7871,-7.1483 -20.77824,-12.30397c-3.99115,-5.15567 -6.45619,-10.19405 -7.39514,-15.11638c-0.94019,-5.85939 -0.35303,-11.95211 1.76022,-18.28065c-1.1743,4.45318 -1.40842,8.67179 -0.70483,12.65583c0.70483,3.98404 2.17271,7.55819 4.4024,10.72246c2.23093,3.16427 5.28313,5.68284 9.1566,7.55819c3.87347,1.87535 8.50999,2.81241 13.91079,2.81241c4.22526,0 8.21641,-1.58152 11.97344,-4.74578c3.75579,-3.16427 7.39514,-6.62113 10.91682,-10.3706c3.52167,-3.74946 7.04335,-7.09028 10.56502,-10.01874c3.52167,-2.92969 7.39514,-4.04206 11.62165,-3.33958c-3.28756,1.64078 -5.81082,3.69144 -7.57228,6.15199c-1.76022,2.46055 -3.11166,4.86307 -4.04937,7.20633c-0.93895,2.81241 -1.5261,5.7421 -1.76022,8.78908l0,126.204l33.80831,13.35832l0,-129.36826c-1.87913,-0.46915 -3.52167,-1.17163 -4.93009,-2.10869c-1.40842,-0.70372 -2.75862,-1.52349 -4.04937,-2.46055c-1.29198,-0.93706 -2.40683,-2.22597 -3.34578,-3.86675l18.66499,-28.12407c5.86904,6.32853 11.03449,10.83974 15.49511,13.53486c4.46062,2.69512 8.09997,4.27787 10.91805,4.74578c3.28756,0.70372 6.1044,0.35186 8.45177,-1.05434c-0.70483,1.4062 -1.5261,2.57783 -2.46629,3.51489c-0.93771,0.93706 -1.93612,1.93338 -2.99274,2.98772c-1.05663,1.05434 -2.28915,1.93338 -3.69757,2.63586l0.35303,116.71243c0.46947,4.92233 3.16988,8.20265 8.09997,9.84343l4.5783,1.75806l-0.00372,-0.0037zm-202.84986,75.5819c1.8779,1.64078 4.04937,2.46055 6.51441,2.46055c2.46505,0 4.63776,-0.70248 6.51441,-2.10869l2.81684,-2.46055c0,1.17163 -1.29074,3.04698 -3.87347,5.62481c-2.58273,2.57783 -5.51725,5.50753 -8.8048,8.78908c-3.28756,3.28155 -6.45619,6.73842 -9.50839,10.3706c-3.0522,3.63341 -5.04777,7.20633 -5.98672,10.72246l-21.13004,-20.03871c-1.64254,-1.17163 -3.28632,-2.22597 -4.93009,-3.16427c-1.64378,-0.46915 -3.40399,-0.76175 -5.28313,-0.87903c-1.87913,-0.11729 -3.87471,0.40989 -5.98672,1.58152c1.40842,-1.64078 2.93452,-2.92969 4.5783,-3.86675c1.40842,-0.93706 3.11042,-1.6988 5.10599,-2.28524c1.99557,-0.58643 4.16704,-0.64446 6.51441,-0.17655l0,-64.68413c-5.63369,5.15567 -10.15377,9.96071 -13.55776,14.41266c-3.40399,4.45318 -5.22367,6.79644 -5.45903,7.03102l-15.14332,-7.7335l0,68.90274c3.52167,0.93706 6.45619,2.10869 8.80356,3.51489c2.34737,1.4062 4.2265,2.81241 5.63492,4.21861c1.64254,1.64078 2.81684,3.51613 3.52167,5.62481c-4.69598,-2.81241 -9.68553,-3.45687 -14.96742,-1.93338c-5.28189,1.52349 -10.21322,4.74578 -14.79152,9.66811c-4.5783,4.9211 -8.33533,11.42494 -11.26985,19.5103c-2.93576,8.08536 -4.4024,17.40162 -4.4024,27.94753c0.46947,-0.23457 1.1743,-0.35186 2.11325,-0.35186c1.8779,0 3.46345,0.76175 4.7542,2.28524c1.29074,1.52349 1.81844,3.22229 1.58432,5.09764c-0.46947,3.28032 -2.34737,5.15567 -5.63492,5.62481c-1.87913,0.23457 -3.58113,-0.2926 -5.10599,-1.58152c-1.5261,-1.28892 -2.28915,-2.87043 -2.28915,-4.74578l0,-0.35186l0,-155.73427l0,-0.35186l0,-0.70372c-7.98229,-4.9211 -15.61279,-8.02734 -22.89149,-9.31625c-7.2787,-1.28892 -13.7349,-1.1136 -19.36982,0.52717c-5.63492,1.64078 -10.09555,4.6285 -13.3831,8.96439c-3.28632,4.3359 -4.93009,9.78416 -4.93009,16.34727c0,7.49893 1.1743,13.35832 3.52167,17.57693c2.34861,4.21861 5.04777,7.50016 8.09997,9.84343c3.28756,2.57783 7.16102,4.3359 11.62165,5.27295c-3.99115,0 -7.6305,-0.99632 -10.91682,-2.98772c-3.28756,-1.99264 -6.22208,-4.51121 -8.8048,-7.55819c-2.58273,-3.04698 -4.5783,-6.44459 -5.98672,-10.19528c-1.40842,-3.74946 -2.11325,-7.49893 -2.11325,-11.24963c0,-6.56187 1.11485,-13.183 3.34454,-19.86216c2.23093,-6.67916 5.87028,-12.48052 10.91805,-17.40162c5.04777,-4.92233 11.73932,-8.67179 20.07341,-11.24963c8.33409,-2.57783 18.60553,-3.16427 30.81433,-1.75806l0,-64.68413l0,-17.22507c0,-4.92233 -1.8779,-9.02242 -5.63492,-12.30397l-15.14332,-13.00646c-1.64378,-1.4062 -3.40399,-2.05066 -5.28313,-1.93338c-1.8779,0.11729 -3.52167,0.76175 -4.93009,1.93338c-0.46947,0.46915 -0.88073,0.87903 -1.23252,1.22966c-0.3518,0.35186 -0.76305,0.76175 -1.23252,1.23089c-1.8779,1.87535 -3.75703,3.80873 -5.63492,5.80013c-1.8779,1.99264 -3.75703,4.0433 -5.63492,6.15199c-1.8779,2.34326 -3.63935,4.6285 -5.28313,6.85571c-1.64378,2.22597 -3.28632,4.6285 -4.93009,7.20633c-0.70483,1.4062 -1.40842,2.75438 -2.11325,4.0433c-0.70483,1.28892 -1.40842,2.63586 -2.11325,4.04206c-0.46947,1.4062 -0.93895,2.81241 -1.40842,4.21861c-0.46947,1.4062 -0.93895,2.81241 -1.40842,4.21861c-0.46947,1.4062 -0.82127,2.81241 -1.05663,4.21861c-0.23412,1.4062 -0.46947,2.92969 -0.70359,4.57047l0,1.05434l0,0.35186l0,0.70372l0,1.05434l0,1.05434l0,0.70372l0.3518,0.70248l0,1.05434c0,0.93706 0.11768,1.64078 0.3518,2.10992l1.05663,4.21861c0.46947,0.93706 0.70483,1.52349 0.70483,1.75806l0.70483,1.05434c0,0.23457 0.05946,0.40989 0.1759,0.52717c0.11644,0.11729 0.1759,0.2926 0.1759,0.52717c1.40842,2.34326 3.28756,4.3359 5.63492,5.97667c2.11325,1.64078 4.5783,2.81241 7.39514,3.51489c1.40842,0.23457 2.75862,0.35186 4.05061,0.35186c1.29198,0 2.64095,0 4.04937,0c4.69598,-0.70248 9.1566,-2.57783 13.3831,-5.62481c1.8779,-1.17163 3.46345,-2.57783 4.7542,-4.21861c1.29074,-1.64078 2.40683,-3.28032 3.34578,-4.9211c0.46947,-0.93706 0.82127,-1.75806 1.05663,-2.46055c0.23536,-0.70248 0.58715,-1.52349 1.05663,-2.46055c0.70483,-1.4062 1.05663,-2.81241 1.05663,-4.21861c0.46947,-1.17163 0.70483,-2.28524 0.70483,-3.33958c0,-1.05434 0.11644,-1.93338 0.3518,-2.63586l0,-1.75806l0,-0.35186l0,0.35186l0,1.75806c0,0.70372 -0.05822,1.58152 -0.1759,2.63586c-0.11768,1.05434 -0.29358,2.16795 -0.52893,3.33958c-0.46947,1.87535 -0.82127,3.39884 -1.05663,4.57047c-0.46947,0.70248 -0.82127,1.46423 -1.05663,2.28524c-0.23536,0.81977 -0.58715,1.58152 -1.05663,2.28524c-0.93895,1.87535 -2.05379,3.63218 -3.34578,5.27295c-1.29198,1.64078 -2.8763,3.16427 -4.7542,4.57047c-1.8779,1.4062 -3.99115,2.63586 -6.33975,3.69144c-2.34737,1.05434 -4.81242,1.81609 -7.39514,2.28524c-2.81684,0.46915 -5.51725,0.35186 -8.09997,-0.35186c-3.0522,-0.46915 -5.7526,-1.52349 -8.09997,-3.16427c-1.1743,-0.93706 -2.34861,-1.93338 -3.52167,-2.98772c-1.1743,-1.05434 -2.11325,-2.28524 -2.81684,-3.69144c0,0 -0.23536,-0.23457 -0.70483,-0.70372l-0.35303,-1.05434l-1.05539,-2.10992c-0.23536,-0.70248 -0.47071,-1.46423 -0.70483,-2.28524c-0.23536,-0.82101 -0.46947,-1.58152 -0.70483,-2.28524c0,-0.93706 -0.11768,-1.75806 -0.35303,-2.46055l0,-1.05434l0,-0.35186l-0.3518,-0.70248l0,-1.4062l0,-1.05434l0,-0.35186l0,-0.35186l0,-0.35186l0,-1.05434c0,-1.64078 0.11768,-3.22229 0.3518,-4.74578c0.23536,-1.52349 0.58715,-3.10501 1.05663,-4.74578c0.46947,-1.64078 0.93895,-3.16427 1.40842,-4.57047c0.46947,-1.4062 0.94019,-2.81241 1.40842,-4.21861l4.22526,-8.43722c1.64378,-2.57783 3.28756,-5.09764 4.93133,-7.55819c1.64378,-2.46055 3.40399,-4.86307 5.28189,-7.20633c1.8779,-2.34326 3.69757,-4.57047 5.45903,-6.67916c1.76146,-2.10992 3.58113,-4.10132 5.45903,-5.97667c1.8779,-1.87535 3.69757,-3.63341 5.45903,-5.27295c1.76146,-1.64078 3.58113,-3.28032 5.45903,-4.92233c6.57387,-6.09273 12.32648,-10.89777 17.25657,-14.41266c2.34737,-1.87535 3.99115,-3.16427 4.93133,-3.86675c0.46947,-0.23457 0.93771,-0.5852 1.40842,-1.05434c0.23412,0 0.3518,-0.11729 0.3518,-0.35186l1.40842,2.10992l26.41317,24.60795c4.2265,-3.51489 7.57228,-6.85447 10.03609,-10.01874c2.46505,-3.16427 4.34418,-5.97667 5.63492,-8.43722c1.29198,-2.46055 2.17147,-4.45318 2.64218,-5.97667c0.46947,-1.52349 0.70483,-2.28524 0.70483,-2.28524c1.40842,2.10992 3.40399,3.74946 5.98672,4.92233l46.83714,17.92879c3.99115,0.93706 7.6305,1.05434 10.91682,0.35186c2.58273,-0.46915 5.04777,-1.64078 7.39514,-3.51613c2.34861,-1.87535 3.52167,-4.9211 3.52167,-9.13971c0.70359,3.28032 0.46947,6.44459 -0.70483,9.49157c-1.1743,2.81241 -3.28632,5.80013 -6.33852,8.96439c-3.0522,3.16427 -7.98229,6.0347 -14.79152,8.61253l0,103.70597c0,2.57783 0.76305,4.92233 2.28915,7.03102c1.5261,2.10992 3.58113,3.63341 6.16262,4.57047l4.5783,1.75806l-4.5783,1.75806c-5.63492,1.87535 -8.45177,5.7421 -8.45177,11.60025l0,60.81738l1.40842,1.4062l0.00991,-0.00123zm-33.45651,-67.8484l0,-117.41615l-34.16011,-13.35832l0,117.41615l34.16011,13.35832z" class="fil0"/>
    <path stroke="null" fill-rule="nonzero" fill="#373435" d="m799.18996,231.77801c1.87913,1.64078 4.05061,2.46055 6.51441,2.46055c2.46505,0 4.63776,-0.81977 6.51441,-2.46055l2.81684,-2.10992c0,1.17163 -1.29074,3.04698 -3.87347,5.62481c-2.58273,2.57783 -5.51725,5.4495 -8.8048,8.61253c-3.28632,3.16427 -6.45619,6.56187 -9.50839,10.19405c-3.05344,3.63341 -5.04777,7.20633 -5.98672,10.72246l-21.13004,-19.68685c-1.64378,-1.17163 -3.28756,-2.22597 -4.93009,-3.16427c-3.75579,-1.64078 -7.51282,-1.4062 -11.26985,0.70248c1.40842,-1.64078 2.93452,-2.92969 4.5783,-3.86675c1.40842,-0.93706 3.11042,-1.75806 5.10599,-2.46055c1.99557,-0.70372 4.16828,-0.82101 6.51565,-0.35186l0,-189.83378l-34.16134,-13.00646l0,7.7335l0,103.35411c0.47071,5.15567 3.16988,8.55451 8.09997,10.19405l4.93009,1.75806l-4.93009,1.75806c-2.34737,0.70248 -4.16828,1.9914 -5.45903,3.86675c-1.29074,1.87535 -2.17147,3.98404 -2.64095,6.3273l0,62.22358l1.40842,1.4062c1.87913,1.64078 4.04937,2.46055 6.51441,2.46055c2.46505,0 4.63776,-0.81977 6.51441,-2.46055l2.81684,-2.10992c0,1.17163 -1.29074,3.04698 -3.87347,5.62481c-2.58273,2.57783 -5.51725,5.4495 -8.8048,8.61253c-3.28632,3.16427 -6.45619,6.56187 -9.50839,10.19405c-3.0522,3.63341 -5.04653,7.20633 -5.98672,10.72246l-21.13004,-19.68685c-1.64378,-1.17163 -3.28756,-2.22597 -4.93009,-3.16427c-3.75703,-1.64078 -7.51282,-1.4062 -11.26985,0.70248c1.40842,-1.64078 2.93452,-2.92969 4.5783,-3.86675c1.40842,-0.93706 3.11042,-1.75806 5.10599,-2.46055c1.99557,-0.70372 4.16704,-0.82101 6.51441,-0.35186l0,-69.60646c-1.1743,-4.21861 -3.75703,-7.03102 -7.74694,-8.43722l-4.5783,-1.75806l4.5783,-1.75806c3.99115,-1.4062 6.57387,-4.21861 7.74694,-8.43722l0,-99.83799l-34.16011,-13.00646l0,221.12089c3.52167,0.93706 6.45619,2.10869 8.80356,3.51489c2.34737,1.4062 4.2265,2.81241 5.63492,4.21861c1.64254,1.64078 2.81684,3.51613 3.52167,5.62481c-4.69598,-2.81241 -9.68553,-3.45687 -14.96742,-1.93338c-5.28189,1.52349 -10.21322,4.74578 -14.79152,9.66811c-4.5783,4.9211 -8.33533,11.42494 -11.26985,19.5103c-2.93452,8.08536 -4.4024,17.40162 -4.4024,27.94753c0.46947,-0.23457 1.1743,-0.35186 2.11325,-0.35186c1.8779,0 3.46345,0.76175 4.7542,2.28524c1.29074,1.52349 1.81968,3.22229 1.58432,5.09764c-0.46947,3.28032 -2.34737,5.15567 -5.63492,5.62481c-1.87913,0.23457 -3.58113,-0.2926 -5.10599,-1.58152c-1.5261,-1.28892 -2.28915,-2.87043 -2.28915,-4.74578l0,-0.35186l0,-162.41343c-1.1743,-4.21861 -3.75703,-7.03102 -7.74818,-8.43722l-4.5783,-1.75806l4.5783,-1.75806c3.99115,-1.4062 6.57387,-4.21861 7.74818,-8.43722l0,-71.71515l0,-17.22507c0,-4.92233 -1.87913,-9.02242 -5.63492,-12.30397l-15.14332,-13.00646c-1.64378,-1.4062 -3.40399,-2.05066 -5.28313,-1.93338c-1.8779,0.11729 -3.52167,0.76175 -4.93009,1.93338l-2.46505,2.46055c-1.8779,1.87535 -3.75703,3.80873 -5.63492,5.80013c-1.8779,1.99264 -3.75703,4.0433 -5.63492,6.15199c-3.28632,3.98404 -6.69155,8.67179 -10.21198,14.06204c-0.70483,1.17163 -1.40842,2.46055 -2.11325,3.86675c-0.70359,1.4062 -1.40842,2.81241 -2.11325,4.21861c-0.46947,1.17163 -0.93895,2.46055 -1.40842,3.86675c-0.47071,1.4062 -0.94019,2.92969 -1.40842,4.57047c-0.46947,1.4062 -0.82127,2.81241 -1.05663,4.21861c-0.23412,1.4062 -0.46947,2.92969 -0.70359,4.57047l0,1.05434l0,0.35186l0,0.70372l0,1.05434l0,1.05434l0,0.70372l0.3518,0.35186l0,1.4062c0,0.93706 0.11644,1.64078 0.3518,2.10992l1.05663,4.21861c0.46947,0.93706 0.70483,1.52349 0.70483,1.75806l0.70483,1.05434c0,0.23457 0.05822,0.40989 0.1759,0.52717c0.11644,0.11729 0.1759,0.2926 0.1759,0.52717c1.40842,2.34326 3.28756,4.3359 5.63492,5.97667c2.34737,1.87535 4.81242,2.92969 7.39514,3.16427c2.34861,0.70248 5.04777,0.81977 8.09997,0.35186c2.58273,-0.23457 4.98955,-0.81977 7.21924,-1.75806c2.22969,-0.93706 4.28472,-2.10992 6.16262,-3.51613c3.52167,-2.81241 6.22208,-5.85939 8.09997,-9.13971c0.46947,-0.93706 0.82127,-1.75806 1.05663,-2.46055c0.23536,-0.70248 0.58715,-1.52349 1.05663,-2.46055c0.70483,-1.4062 1.05663,-2.81241 1.05663,-4.21861c0.46947,-1.17163 0.70359,-2.28524 0.70359,-3.33958c0,-1.05434 0.11768,-1.93338 0.3518,-2.63586l0,-1.75806l0,-0.70372l0,0.70372l0,1.75806c0,0.70372 -0.05822,1.58152 -0.1759,2.63586c-0.11768,1.05434 -0.29358,2.16795 -0.52893,3.33958c-0.46947,1.87535 -0.82127,3.39884 -1.05663,4.57047c-0.46947,0.70248 -0.82127,1.46423 -1.05663,2.28524c-0.23412,0.81977 -0.58715,1.58152 -1.05539,2.28524c-0.94019,1.87535 -2.05503,3.63218 -3.34578,5.27295c-1.29198,1.64078 -2.8763,3.16427 -4.7542,4.57047c-3.52167,2.81241 -8.09997,4.80381 -13.7349,5.97667c-2.81684,0.46915 -5.51725,0.35186 -8.09997,-0.35186c-3.0522,-0.46915 -5.75136,-1.52349 -8.09997,-3.16427c-1.1743,-0.93706 -2.34861,-1.93338 -3.52167,-2.98772c-1.1743,-1.05434 -2.11325,-2.28524 -2.81684,-3.69144c-0.23536,-0.23457 -0.3518,-0.40989 -0.3518,-0.52717c0,-0.11729 -0.11644,-0.2926 -0.3518,-0.52717l-0.35303,-0.70248l-1.05539,-2.10992c-0.23536,-0.93706 -0.46947,-1.75806 -0.70483,-2.46055c-0.23536,-0.70248 -0.46947,-1.4062 -0.70483,-2.10869c0,-1.17163 -0.11768,-1.99264 -0.35303,-2.46055l0,-1.05434l0,-0.70248l-0.3518,-0.35186l0,-1.4062l0,-1.05434l0,-0.70372l0,-0.35186l0,-1.4062c0,-1.64078 0.11768,-3.16427 0.3518,-4.57047c0.23536,-1.4062 0.58715,-2.92969 1.05663,-4.57047c0.46947,-1.64078 0.93895,-3.16427 1.40842,-4.57047c0.46947,-1.4062 0.94019,-2.81241 1.40842,-4.21861c0.70483,-1.64078 1.40842,-3.10501 2.11325,-4.39392c0.70483,-1.28892 1.40842,-2.63709 2.11325,-4.0433c1.64378,-2.57783 3.28756,-5.09764 4.93133,-7.55819c1.64378,-2.46055 3.40399,-4.86307 5.28189,-7.20633c1.87913,-2.34326 3.69757,-4.57047 5.45903,-6.67916c1.76022,-2.10992 3.57989,-4.10132 5.45779,-5.97667c1.8779,-1.87535 3.69757,-3.69144 5.45903,-5.4495c1.76146,-1.75806 3.58113,-3.33958 5.45903,-4.74578c6.57387,-6.09273 12.32648,-10.89777 17.25657,-14.41266c2.34737,-1.87535 3.99115,-3.16427 4.93133,-3.86675c0.46947,-0.23457 0.93771,-0.5852 1.40842,-1.05434l0.3518,-0.35186l1.40842,2.10992l26.41193,24.60795c4.2265,-3.51489 7.57228,-6.85447 10.03609,-10.01874c2.46629,-3.16427 4.34418,-5.97667 5.63492,-8.43722c1.29198,-2.46055 2.17147,-4.45318 2.64218,-5.97667c0.46947,-1.52349 0.70483,-2.28524 0.70483,-2.28524c1.40842,2.10992 3.40399,3.74946 5.98672,4.92233l46.13355,17.57693c6.1044,-6.09273 9.91965,-11.30765 11.44575,-15.64355c1.5261,-4.3359 2.40683,-6.62113 2.64218,-6.85571c1.40842,2.10992 3.40399,3.74946 5.98672,4.92233l46.83838,17.92879c3.99115,0.93706 7.6305,1.05434 10.91805,0.35186c2.58273,-0.46915 5.04777,-1.64078 7.39514,-3.51613c2.34861,-1.87535 3.52167,-4.9211 3.52167,-9.13971c0.70483,3.28032 0.46947,6.44459 -0.70483,9.49157c-1.1743,2.57783 -3.28632,5.44827 -6.33852,8.61253c-3.0522,3.16427 -7.98229,6.0347 -14.79152,8.61253l0,107.22086c1.1743,4.21861 3.75703,7.03102 7.74818,8.43722l4.93009,1.75806l-4.93009,1.75806c-3.99115,1.4062 -6.57387,4.21861 -7.74818,8.43722l0,63.98165l1.40842,1.4062l0.00743,0z" class="fil0"/>
    <path stroke="null" fill-rule="nonzero" fill="#373435" d="m1145.37303,231.77801c1.8779,1.64078 4.04937,2.46055 6.51441,2.46055c2.46505,0 4.63652,-0.81977 6.51441,-2.46055l2.81684,-2.10992c0,1.17163 -1.29074,3.04698 -3.87347,5.62481c-2.58273,2.57783 -5.51725,5.4495 -8.8048,8.61253c-3.28632,3.16427 -6.45619,6.56187 -9.50839,10.19405c-3.0522,3.63341 -5.04777,7.20633 -5.98672,10.72246l-21.13004,-19.68685c-1.64254,-1.17163 -3.28632,-2.22597 -4.93009,-3.16427c-3.75703,-1.64078 -7.51406,-1.4062 -11.26985,0.70248c1.40842,-1.64078 2.93452,-2.92969 4.5783,-3.86675c1.40842,-0.93706 3.11042,-1.75806 5.10599,-2.46055c1.99557,-0.70372 4.16704,-0.82101 6.51441,-0.35186l0,-189.83378l-34.16011,-13.00646l0,221.12089c3.52167,0.93706 6.45619,2.10869 8.80356,3.51489c2.34737,1.4062 4.2265,2.81241 5.63492,4.21861c1.64254,1.64078 2.81684,3.51613 3.52167,5.62481c-4.69598,-2.81241 -9.68553,-3.45687 -14.96742,-1.93338c-5.28313,1.52349 -10.21322,4.74578 -14.79152,9.66811c-4.5783,4.9211 -8.33533,11.42494 -11.26985,19.5103c-2.93576,8.08536 -4.4024,17.40162 -4.4024,27.94753c0.46947,-0.23457 1.1743,-0.35186 2.11325,-0.35186c1.8779,0 3.46345,0.70372 4.7542,2.10992c1.29074,1.4062 1.81844,3.16427 1.58432,5.27295c-0.46947,3.28032 -2.34737,5.15567 -5.63492,5.62481c-1.87913,0.23457 -3.58113,-0.2926 -5.10599,-1.58152c-1.5261,-1.28892 -2.28915,-2.87043 -2.28915,-4.74578l0,-0.35186l0,-161.35909c-0.70483,-4.68776 -3.40399,-7.85079 -8.09997,-9.49157l-4.5783,-1.75806l4.5783,-1.75806c4.69598,-1.64078 7.39514,-4.80381 8.09997,-9.49157l0,-87.88587c0,-4.92233 -1.8779,-9.02242 -5.63492,-12.30397l-15.14332,-13.00646c-1.64378,-1.4062 -3.40399,-2.05066 -5.28313,-1.93338c-1.8779,0.11729 -3.52167,0.76175 -4.93009,1.93338l-2.46505,2.46055c-1.8779,1.87535 -3.75703,3.80873 -5.63492,5.80013c-1.8779,1.99264 -3.75703,4.0433 -5.63492,6.15199c-3.28632,3.98404 -6.69155,8.67179 -10.21322,14.06204c-0.70483,1.17163 -1.40842,2.46055 -2.11325,3.86675c-0.70483,1.4062 -1.40842,2.81241 -2.11325,4.21861c-0.46947,1.17163 -0.94019,2.46055 -1.40842,3.86675c-0.46947,1.4062 -0.93895,2.92969 -1.40842,4.57047c-0.46947,1.4062 -0.82127,2.81241 -1.05663,4.21861c-0.23412,1.4062 -0.46947,2.92969 -0.70483,4.57047l0,1.05434l0,0.35186l0,0.70372l0,1.05434l0,1.05434l0,0.70372l0.3518,0.35186l0,1.4062c0,0.93706 0.11768,1.64078 0.3518,2.10992l1.05663,4.21861c0.46947,0.93706 0.70483,1.52349 0.70483,1.75806l0.70483,1.05434c0,0.23457 0.05822,0.40989 0.1759,0.52717c0.11644,0.11729 0.1759,0.2926 0.1759,0.52717c1.40842,2.34326 3.28632,4.3359 5.63492,5.97667c2.34861,1.87535 4.81242,2.92969 7.39514,3.16427c2.34737,0.70248 5.04777,0.81977 8.09997,0.35186c2.58273,-0.23457 4.98955,-0.81977 7.21924,-1.75806c2.22969,-0.93706 4.28472,-2.10992 6.16262,-3.51613c3.52167,-2.81241 6.22208,-5.85939 8.09997,-9.13971c0.46947,-0.93706 0.82127,-1.75806 1.05663,-2.46055c0.23536,-0.70248 0.58715,-1.52349 1.05663,-2.46055c0.70359,-1.4062 1.05663,-2.81241 1.05663,-4.21861c0.46947,-1.17163 0.70483,-2.28524 0.70483,-3.33958c0,-1.05434 0.11644,-1.93338 0.3518,-2.63586l0,-1.75806l0,-0.70372l0,0.70372l0,1.75806c0,0.70372 -0.05822,1.58152 -0.1759,2.63586c-0.11644,1.05434 -0.29358,2.16795 -0.52769,3.33958c-0.46947,1.87535 -0.82127,3.39884 -1.05663,4.57047c-0.46947,0.70248 -0.82127,1.46423 -1.05663,2.28524c-0.23536,0.81977 -0.58715,1.58152 -1.05663,2.28524c-0.93895,1.87535 -2.05379,3.63218 -3.34578,5.27295c-1.29198,1.64078 -2.8763,3.16427 -4.7542,4.57047c-3.52167,2.81241 -8.09997,4.80381 -13.7349,5.97667c-2.81684,0.46915 -5.51725,0.35186 -8.09997,-0.35186c-3.0522,-0.46915 -5.7526,-1.52349 -8.09997,-3.16427c-1.1743,-0.93706 -2.34737,-1.93338 -3.52167,-2.98772c-1.1743,-1.05434 -2.11325,-2.28524 -2.81684,-3.69144c-0.23536,-0.23457 -0.3518,-0.40989 -0.3518,-0.52717c0,-0.11729 -0.11768,-0.2926 -0.3518,-0.52717l-0.35303,-0.70248l-1.05663,-2.10992c-0.23536,-0.93706 -0.46947,-1.75806 -0.70483,-2.46055c-0.23536,-0.70248 -0.46947,-1.4062 -0.70483,-2.10869c0,-1.17163 -0.11768,-1.99264 -0.35303,-2.46055l0,-1.05434l0,-0.70248l-0.3518,-0.35186l0,-1.4062l0,-1.05434l0,-0.70372l0,-0.35186l0,-1.4062c0,-1.64078 0.11644,-3.16427 0.3518,-4.57047c0.23536,-1.4062 0.58715,-2.92969 1.05663,-4.57047c0.46947,-1.64078 0.93895,-3.16427 1.40842,-4.57047c0.46947,-1.4062 0.93895,-2.81241 1.40842,-4.21861c0.70483,-1.64078 1.40842,-3.10501 2.11325,-4.39392c0.70483,-1.28892 1.40842,-2.63709 2.11325,-4.0433c1.64378,-2.57783 3.28632,-5.09764 4.93009,-7.55819c1.64378,-2.46055 3.40399,-4.86307 5.28313,-7.20633c1.8779,-2.34326 3.69757,-4.57047 5.45903,-6.67916c1.76146,-2.10992 3.58113,-4.10132 5.45903,-5.97667c1.8779,-1.87535 3.69757,-3.69144 5.45779,-5.4495c1.76146,-1.75806 3.58113,-3.33958 5.45903,-4.74578c6.57387,-6.09273 12.32648,-10.89777 17.25657,-14.41266c2.34737,-1.87535 3.99115,-3.16427 4.93009,-3.86675c0.46947,-0.23457 0.93895,-0.5852 1.40842,-1.05434l0.3518,-0.35186l1.40842,2.10992l26.41317,24.60795c4.2265,-3.51489 7.57228,-6.85447 10.03609,-10.01874c2.46505,-3.16427 4.34418,-5.97667 5.63492,-8.43722c1.29074,-2.46055 2.17147,-4.45318 2.64218,-5.97667c0.46947,-1.52349 0.70359,-2.28524 0.70359,-2.28524c1.40842,2.10992 3.40399,3.74946 5.98672,4.92233l46.83838,17.92879c3.99115,0.93706 7.6305,1.05434 10.91682,0.35186c2.58273,-0.46915 5.04777,-1.64078 7.39514,-3.51613c2.34861,-1.87535 3.52167,-4.9211 3.52167,-9.13971c0.70483,3.28032 0.47071,6.44459 -0.70483,9.49157c-1.1743,2.57783 -3.28632,5.44827 -6.33852,8.61253c-3.0522,3.16427 -7.98229,6.0347 -14.79152,8.61253l0,105.4628c0.23536,2.57783 1.1743,4.86307 2.81684,6.85571c1.64378,1.9914 3.75703,3.45687 6.33852,4.39392l5.28313,1.4062l-5.28313,1.75806c-2.58273,0.93706 -4.69598,2.40252 -6.33852,4.39392c-1.64254,1.99264 -2.58273,4.27787 -2.81684,6.85571l0,60.46552l1.40842,1.4062l0.00991,-0.00247zm-171.50783,-219.71468c0.70483,3.28032 0.46947,6.44459 -0.70483,9.49157c-1.17307,2.57783 -3.28632,5.44827 -6.33852,8.61253c-3.0522,3.16427 -7.98229,6.0347 -14.79152,8.61253l0,106.869c1.1743,4.45318 3.87347,7.38288 8.09997,8.78908l4.5783,1.75806l-4.5783,1.75806c-4.22526,1.4062 -6.92567,4.45318 -8.09997,9.14094l0,48.51217l0,1.4062c0,4.45318 1.76022,8.20265 5.28189,11.24963c-6.57387,-0.46915 -13.14774,1.17163 -19.72038,4.92233c-6.57387,3.74946 -12.56183,7.96808 -17.9614,12.65583c-5.39957,4.68652 -9.86143,9.02242 -13.3831,13.00646c-3.52167,3.98404 -5.28189,5.97667 -5.28189,5.97667c-8.92248,-3.74946 -16.7871,-7.1483 -23.59509,-10.19405c-3.0522,-1.17163 -5.9285,-2.40252 -8.6289,-3.69144c-2.7004,-1.28892 -5.22367,-2.51981 -7.57228,-3.69144c-2.58149,-1.17163 -5.04653,-2.22721 -7.39514,-3.16427c-3.28632,-1.17163 -6.33852,-1.87535 -9.1566,-2.10869c-2.58273,-0.23457 -5.16545,-0.05926 -7.74818,0.52717c-2.58273,0.5852 -4.81242,1.93338 -6.69155,4.04206c1.40842,-2.57783 3.28756,-4.9211 5.63492,-7.03102c1.87913,-1.87535 4.34294,-3.57415 7.39638,-5.09764c3.0522,-1.52349 6.57387,-2.28524 10.56502,-2.28524l0,-64.68413c-0.70483,-4.68776 -3.40399,-7.85079 -8.09997,-9.49157l-4.5783,-1.75806l4.5783,-1.75806c4.69598,-1.64078 7.39514,-4.80381 8.09997,-9.49157l0,-93.15883c-9.86143,-3.04698 -16.72764,-7.20633 -20.60111,-12.47929c-3.87471,-5.27295 -6.2803,-10.3706 -7.21924,-15.29293c-0.93895,-5.85939 -0.3518,-11.95211 1.76146,-18.28065c-1.1743,4.45318 -1.40842,8.72982 -0.70483,12.83114c0.70483,4.10132 2.17271,7.67548 4.4024,10.72246c2.22969,3.04698 5.28189,5.50753 9.1566,7.38288c3.87471,1.87535 8.39355,2.81241 13.559,2.81241c7.51282,0 13.97025,-1.9914 19.36982,-5.97667c5.39957,-3.98404 10.09555,-8.31994 14.08669,-13.00646c4.2265,-5.62481 8.09997,-11.95211 11.62165,-18.98313c1.40842,2.10992 3.40399,3.74946 5.98672,4.92233l46.83838,17.92879c3.99115,0.93706 7.6305,1.05434 10.91682,0.35186c2.58273,-0.46915 5.04777,-1.64078 7.39514,-3.51613c2.34861,-1.87535 3.52167,-4.9211 3.52167,-9.13971l0,-0.00123zm-53.88172,34.09951l-34.16011,-13.00646l0,189.48192l34.16011,13.00646l0,-189.48192z" class="fil0"/>
    <path stroke="null" fill-rule="nonzero" fill="#373435" d="m1357.73252,12.06209c0.70483,3.28032 0.46947,6.44459 -0.70483,9.49157c-1.1743,2.57783 -3.28632,5.44827 -6.33852,8.61253c-3.0522,3.16427 -7.98229,6.0347 -14.79152,8.61253l0,106.16652c0.70483,4.68652 3.40399,7.85079 8.09997,9.49157l4.5783,1.75806l-4.5783,1.75806c-4.69598,1.64078 -7.39638,4.92233 -8.09997,9.84343l0,49.21589c0,4.68776 1.76146,8.43722 5.28313,11.24963c-4.46062,-0.23457 -8.92248,0.46915 -13.3831,2.10992c-4.46062,1.64078 -8.74534,3.80873 -12.85417,6.50385c-4.10883,2.69512 -7.98229,5.68284 -11.62165,8.96439c-3.63811,3.28032 -6.80799,6.26927 -9.50839,8.96439c-2.69916,2.69512 -4.87187,5.03838 -6.51441,7.03102c-1.64378,1.9914 -2.46505,2.98772 -2.46505,2.98772c-8.92248,-3.74946 -16.7871,-7.1483 -23.59509,-10.19405c-3.0522,-1.17163 -5.9285,-2.40252 -8.62767,-3.69144c-2.7004,-1.28892 -5.22367,-2.51981 -7.57228,-3.69144c-2.58273,-1.17163 -5.04777,-2.22721 -7.39514,-3.16427c-7.74818,-4.21861 -15.261,-6.97176 -22.53846,-8.26067c-7.2787,-1.28892 -13.7349,-1.17163 -19.36982,0.35186c-5.63492,1.52349 -10.15377,4.3359 -13.559,8.43722c-3.40399,4.10132 -5.10599,9.43354 -5.10599,15.99541c0,7.50016 1.17307,13.35832 3.52167,17.57693c2.34861,4.21861 5.04777,7.49893 8.09997,9.84343c3.28632,2.57783 7.15979,4.3359 11.62041,5.27295c-3.99115,0 -7.6305,-0.99632 -10.91682,-2.98772c-3.28756,-1.9914 -6.22208,-4.51121 -8.8048,-7.55819c-2.58273,-3.04698 -4.5783,-6.50385 -5.98672,-10.3706c-1.40842,-3.86675 -2.11325,-7.55819 -2.11325,-11.07308c0,-6.56187 1.11485,-13.183 3.34454,-19.86216c2.23093,-6.67916 5.87028,-12.53855 10.91805,-17.57693c5.04777,-5.03838 11.73932,-8.84711 20.07341,-11.42494c8.33409,-2.57783 18.60553,-3.16427 30.81433,-1.75806l0,-43.94294c-1.1743,-4.45318 -3.75703,-7.38288 -7.74818,-8.78908l-4.93009,-1.75806l4.93009,-1.75806c3.99115,-1.4062 6.57387,-4.21861 7.74818,-8.43722l0,-88.94022c0,-4.92233 -1.8779,-9.02242 -5.63492,-12.30397l-15.14332,-13.00646c-1.64378,-1.4062 -3.40399,-2.05066 -5.28313,-1.93338c-1.8779,0.11729 -3.52167,0.76175 -4.93009,1.93338l-2.46505,2.46055c-1.8779,1.87535 -3.75703,3.80873 -5.63492,5.80013c-1.8779,1.99264 -3.75703,4.0433 -5.63492,6.15199c-3.28632,3.98404 -6.69155,8.67179 -10.21198,14.06204c-0.70483,1.17163 -1.40842,2.46055 -2.11325,3.86675c-0.70359,1.4062 -1.40842,2.81241 -2.11325,4.21861c-0.46947,1.17163 -0.93895,2.46055 -1.40842,3.86675c-0.47071,1.4062 -0.94019,2.92969 -1.40842,4.57047c-0.46947,1.4062 -0.82127,2.81241 -1.05663,4.21861c-0.23412,1.4062 -0.46947,2.92969 -0.70359,4.57047l0,1.05434l0,0.35186l0,0.70372l0,1.05434l0,1.05434l0,0.70372l0.3518,0.35186l0,1.4062c0,0.93706 0.11644,1.64078 0.3518,2.10992l1.05663,4.21861c0.46947,0.93706 0.70483,1.52349 0.70483,1.75806l0.70483,1.05434c0,0.23457 0.05822,0.40989 0.1759,0.52717c0.11644,0.11729 0.1759,0.2926 0.1759,0.52717c1.40842,2.34326 3.28756,4.3359 5.63492,5.97667c2.34861,1.87535 4.81242,2.92969 7.39514,3.16427c2.34861,0.70248 5.04777,0.81977 8.09997,0.35186c2.58273,-0.23457 4.98955,-0.81977 7.21924,-1.75806c2.22969,-0.93706 4.28472,-2.10992 6.16262,-3.51613c3.52167,-2.81241 6.22208,-5.85939 8.09997,-9.13971c0.46947,-0.93706 0.82127,-1.75806 1.05663,-2.46055c0.23536,-0.70248 0.58715,-1.52349 1.05663,-2.46055c0.70483,-1.4062 1.05663,-2.81241 1.05663,-4.21861c0.46947,-1.17163 0.70359,-2.28524 0.70359,-3.33958c0,-1.05434 0.11768,-1.93338 0.3518,-2.63586l0,-1.75806l0,-0.70372l0,0.70372l0,1.75806c0,0.70372 -0.05822,1.58152 -0.1759,2.63586c-0.11768,1.05434 -0.29358,2.16795 -0.52893,3.33958c-0.46947,1.87535 -0.82127,3.39884 -1.05663,4.57047c-0.46947,0.70248 -0.82127,1.46423 -1.05663,2.28524c-0.23412,0.81977 -0.58715,1.58152 -1.05663,2.28524c-0.93895,1.87535 -2.05379,3.63218 -3.34578,5.27295c-1.29198,1.64078 -2.8763,3.16427 -4.7542,4.57047c-3.52167,2.81241 -8.09997,4.80381 -13.7349,5.97667c-2.81684,0.46915 -5.51725,0.35186 -8.09997,-0.35186c-3.0522,-0.46915 -5.75136,-1.52349 -8.09997,-3.16427c-1.1743,-0.93706 -2.34861,-1.93338 -3.52167,-2.98772c-1.1743,-1.05434 -2.11325,-2.28524 -2.81684,-3.69144c-0.23536,-0.23457 -0.3518,-0.40989 -0.3518,-0.52717c0,-0.11729 -0.11644,-0.2926 -0.3518,-0.52717l-0.35303,-0.70248l-1.05539,-2.10992c-0.23536,-0.93706 -0.47071,-1.75806 -0.70483,-2.46055c-0.23536,-0.70248 -0.46947,-1.4062 -0.70483,-2.10869c0,-1.17163 -0.11768,-1.99264 -0.35303,-2.46055l0,-1.05434l0,-0.70248l-0.3518,-0.35186l0,-1.4062l0,-1.05434l0,-0.70372l0,-0.35186l0,-1.4062c0,-1.64078 0.11768,-3.16427 0.3518,-4.57047c0.23536,-1.4062 0.58715,-2.92969 1.05663,-4.57047c0.46947,-1.64078 0.93895,-3.16427 1.40842,-4.57047c0.46947,-1.4062 0.94019,-2.81241 1.40842,-4.21861c0.70483,-1.64078 1.40842,-3.10501 2.11325,-4.39392c0.70483,-1.28892 1.40842,-2.63709 2.11325,-4.0433c1.64378,-2.57783 3.28756,-5.09764 4.93133,-7.55819c1.64378,-2.46055 3.40399,-4.86307 5.28189,-7.20633c1.87913,-2.34326 3.69757,-4.57047 5.45903,-6.67916c1.76022,-2.10992 3.57989,-4.10132 5.45779,-5.97667c1.8779,-1.87535 3.69757,-3.69144 5.45903,-5.4495c1.76146,-1.75806 3.58113,-3.33958 5.45903,-4.74578c6.57387,-6.09273 12.32648,-10.89777 17.25657,-14.41266c2.34737,-1.87535 3.99115,-3.16427 4.93133,-3.86675c0.46947,-0.23457 0.93771,-0.5852 1.40842,-1.05434l0.3518,-0.35186l1.40842,2.10992l26.41317,24.60795c4.2265,-3.51489 7.57228,-6.85447 10.03609,-10.01874c2.46505,-3.16427 4.34418,-5.97667 5.63492,-8.43722c1.29198,-2.46055 2.17147,-4.45318 2.64218,-5.97667c0.46947,-1.52349 0.70483,-2.28524 0.70483,-2.28524c1.40842,2.10992 3.40399,3.74946 5.98672,4.92233l46.83714,17.92879c3.99115,0.93706 7.6305,1.05434 10.91805,0.35186c2.58273,-0.46915 5.04777,-1.64078 7.39514,-3.51613c2.34861,-1.87535 3.52167,-4.9211 3.52167,-9.13971l0.00248,-0.00741zm-53.88296,34.09951l-34.16011,-13.00646l0,189.48192l34.16011,13.00646l0,-189.48192z" class="fil0"/>
   </g>
  </g>
 </g>
</svg>